<?xml version="1.0" encoding="UTF-8"?>
<svg width="1919px" height="354px" viewBox="0 0 1919 354" version="1.1" xmlns="http://www.w3.org/2000/svg" xmlns:xlink="http://www.w3.org/1999/xlink" jetway-hooks="{}">
    <title>Wicked Queer</title>
    <g jetway-hook-id="5F9DA70F-18EA-4CFA-83B1-A87E01E10CB4" id="Page-1" stroke="none" stroke-width="1" fill="none" fill-rule="evenodd">
        <g jetway-hook-id="94796C45-11A9-4FB4-ABC0-2EEEE2198FB1" id="Wicked-Queer" fill-rule="nonzero">
            <path d="M1134.21,8.29 C1154.22626,8.29 1170.46746,13.2522035 1182.74004,23.6450435 C1196.33637,35.0210249 1202.91309,51.2184396 1203.05757,71.9688248 L1203.06,72.67 L1203.06,229.22 C1203.06,249.88232 1196.58507,266.072615 1183.11374,277.510156 L1182.657,277.893891 L1177.90574,282.208551 C1178.11011,295.623173 1181.91366,303.988464 1187.41265,308.5809 C1192.22746,312.61762 1199.52583,315.192171 1209.69547,315.465773 L1209.999,315.472 L1209.999,345.789 L1209.87764,345.788002 C1191.35259,345.515957 1175.83162,340.614842 1163.42996,330.791171 L1162.88485,330.354579 C1152.44659,321.371121 1146.10324,309.344186 1143.70255,294.347942 L1143.58946,293.62 L1134.21,293.62 C1124.60636,293.62 1115.57582,292.216435 1107.1049,289.398896 C1098.84538,286.651668 1091.66678,282.796651 1085.6142,277.779778 C1072.07769,266.457102 1065.5084,250.414188 1065.36249,229.930043 L1065.36,229.23 L1065.36,72.67 C1065.36,51.5842229 1071.92048,35.1500982 1085.64163,23.6772907 C1097.95254,13.2522035 1114.19374,8.29 1134.21,8.29 Z M1134.21,38.58 C1123.06878,38.58 1115.18046,41.221693 1110.05302,45.5309117 C1104.08087,50.6001425 1100.29,59.311805 1100.29,72.67 L1100.29,72.67 L1100.29,229.22 L1100.29292,229.847841 C1100.40955,242.338693 1104.01644,250.876268 1110.0741,256.376916 C1115.17341,260.67509 1123.06363,263.32 1134.21,263.32 C1145.80414,263.32 1153.66243,260.568928 1158.42807,256.318638 C1164.36454,251.241316 1168.13,242.543352 1168.13,229.23 L1168.13,229.23 L1168.13,72.67 L1168.12734,72.0497784 C1168.01232,58.6875005 1164.17273,50.2498467 1158.38494,45.5414219 C1153.61393,41.3141314 1145.76838,38.58 1134.21,38.58 Z M1287.76,11.66 L1287.76,229.23 C1287.76,243.04025 1291.50904,251.689414 1297.09303,256.394435 C1302.16473,260.656683 1310.18936,263.32 1321.68,263.32 C1332.82122,263.32 1340.70954,260.678307 1345.80697,256.394435 C1351.80913,251.299857 1355.6,242.588195 1355.6,229.23 L1355.6,229.23 L1355.6,11.66 L1390.52,11.66 L1390.52,229.23 C1390.52,249.415459 1383.80342,265.814945 1370.1142,278.321786 C1357.30868,288.634029 1341.1092,293.61 1321.69,293.61 C1301.67497,293.61 1285.43453,288.648402 1273.16115,278.254707 C1259.4691,266.264354 1252.84,249.860667 1252.84,229.23 L1252.84,229.23 L1252.84,11.66 L1287.76,11.66 Z M1841.55,11.66 C1861.29458,11.66 1877.52209,16.7857102 1890.07302,27.4390883 C1903.66154,38.8086156 1910.25114,54.8505402 1910.39751,75.3494473 L1910.4,76.05 L1910.4,107.61 C1910.4,128.704389 1903.83093,145.138543 1890.11875,156.602389 C1887.03052,159.409448 1883.51609,161.682024 1879.39717,163.702232 L1878.70505,164.036645 L1907.01668,290.25 L1871.57155,290.25 L1845.18155,171.99 L1807.62,171.99 L1807.62,290.25 L1772.7,290.25 L1772.7,11.66 L1841.55,11.66 Z M1841.55,41.95 L1807.63,41.95 L1807.63,141.7 L1841.55,141.7 L1842.16561,141.697288 C1852.98243,141.601588 1860.6745,138.978507 1865.70698,134.749088 C1871.67913,129.679857 1875.47,120.968195 1875.47,107.61 L1875.47,107.61 L1875.47,76.04 L1875.46708,75.4121588 C1875.35045,62.9213054 1871.74342,54.3836082 1865.67697,48.8755647 C1860.57954,44.591693 1852.69122,41.95 1841.55,41.95 L1841.55,41.95 Z M1725.23,11.66 L1725.23,41.95 L1641.9,41.95 L1641.9,132.02 L1699.3,132.02 L1699.3,162.31 L1641.9,162.31 L1641.9,259.95 L1725.23,259.95 L1725.23,290.24 L1606.98,290.24 L1606.98,11.66 L1725.23,11.66 Z M1559.51,11.66 L1559.51,41.95 L1476.18,41.95 L1476.18,132.02 L1533.58,132.02 L1533.58,162.31 L1476.18,162.31 L1476.18,259.95 L1559.51,259.95 L1559.51,290.24 L1441.26,290.24 L1441.26,11.66 L1559.51,11.66 Z" jetway-hook-id="02D0381A-805D-4BC9-ADCB-31F82F0D1CAD" id="Queer" stroke="#F81857" stroke-width="16"></path>
            <path d="M413.44,0.29 C435.66,0.29 453.56,6.04 467.14,17.54 C482.57,31.01 490.29,49.39 490.29,72.67 L490.29,98.76 L439.37,98.76 L439.37,72.67 C439.37,62.29 437.21,55.28 432.89,51.63 C428.88,48.26 422.39,46.58 413.45,46.58 C404.81,46.58 398.48,48.26 394.47,51.63 C389.84,55.56 387.53,62.57 387.53,72.67 L387.53,229.22 C387.53,239.32 389.84,246.34 394.47,250.26 C398.48,253.63 404.81,255.31 413.45,255.31 C422.4,255.31 428.88,253.63 432.89,250.26 C437.21,246.62 439.37,239.6 439.37,229.22 L439.37,191.34 L490.29,191.34 L490.29,229.22 C490.29,252.51 482.57,270.88 467.14,284.35 C453.56,295.87 435.67,301.61 413.44,301.61 C391.83,301.61 373.93,295.86 359.74,284.36 C344.3,270.33 336.59,251.95 336.59,229.23 L336.59,72.67 C336.59,49.94 344.3,31.57 359.74,17.54 C373.93,6.04 391.83,0.29 413.44,0.29 Z M950.89,3.66 C972.8,3.66 990.7,9.55 1004.59,21.34 C1020.02,34.25 1027.74,52.48 1027.74,76.05 L1027.74,227.55 C1027.74,239.06 1025.89,249.3 1022.18,258.27 C1017.85,267.81 1011.84,275.67 1004.13,281.84 C990.86,292.78 973.12,298.25 950.89,298.25 L874.04,298.25 L874.04,3.66 L950.89,3.66 Z M572.22,3.66 L572.22,123.18 L628.7,3.66 L683.79,3.66 L618.52,143.38 L683.79,298.25 L629.16,298.25 L589.81,203.98 L572.22,240.59 L572.22,298.25 L521.3,298.25 L521.3,3.66 L572.22,3.66 Z M842.58,3.66 L842.58,49.95 L759.25,49.95 L759.25,124.02 L816.65,124.02 L816.65,170.31 L759.25,170.31 L759.25,251.95 L842.58,251.95 L842.58,298.24 L708.33,298.24 L708.33,3.66 L842.58,3.66 Z M950.89,49.95 L924.97,49.95 L924.97,251.95 L950.89,251.95 C960.15,251.95 966.63,250.41 970.33,247.32 C974.65,243.95 976.81,237.36 976.81,227.54 L976.81,76.04 C976.81,66.22 974.5,59.21 969.87,55 C965.86,51.63 959.53,49.95 950.89,49.95 Z M303.74,3.66 L303.74,298.25 L252.82,298.25 L252.82,3.66 L303.74,3.66 Z M52.37,3.66 L69.96,150.54 L99.59,50.38 L128.75,50.38 L158.38,150.54 L175.97,3.66 L227.35,3.66 L187.54,298.25 L159.3,298.25 L113.93,151.8 L69.03,298.25 L40.79,298.25 L0.98,3.66 L52.37,3.66 Z" jetway-hook-id="784C736B-BB89-4449-AB7B-B1351B31E039" id="Wicked" fill="#F81857"></path>
        </g>
    </g>
</svg>