<?xml version="1.0" encoding="UTF-8"?>
<svg width="200px" height="37px" viewBox="0 0 200 37" version="1.1" xmlns="http://www.w3.org/2000/svg" xmlns:xlink="http://www.w3.org/1999/xlink">
    <g id="Page-1" stroke="none" stroke-width="1" fill="none" fill-rule="evenodd">
        <g id="logo" fill="#F81757">
            <path d="M52.7,21.6666667 C52.7424242,21.5090909 52.769697,21.4151515 52.7969697,21.3181818 C52.9424242,21.3787879 53.1030303,21.4181818 53.2242424,21.5060606 C53.2606061,21.530303 53.1787879,21.6818182 53.1515152,21.7757576 C53,21.7393939 52.8515152,21.7030303 52.7,21.6666667 Z M51.7363636,25.4060606 C51.7090909,25.4212121 51.6454545,25.3878788 51.6,25.3757576 C51.6181818,25.330303 51.6242424,25.269697 51.6606061,25.2515152 C51.6878788,25.2363636 51.7515152,25.2727273 51.8,25.2878788 C51.7818182,25.330303 51.7727273,25.3878788 51.7363636,25.4060606 Z M51.1242424,31.1121212 L51.1030303,30.9939394 L51.2333333,31.0121212 L51.1242424,31.1121212 Z M50.5575758,28.9242424 C50.4575758,28.8969697 50.3666667,28.8424242 50.2727273,28.7969697 C50.3424242,28.730303 50.4121212,28.6666667 50.4818182,28.6 C50.5454545,28.6727273 50.6181818,28.7424242 50.669697,28.8212121 C50.6787879,28.8363636 50.5818182,28.930303 50.5575758,28.9242424 Z M54.4545455,25.830303 C54.4909091,25.8454545 54.5030303,25.9030303 54.5272727,25.9424242 C54.4818182,25.9606061 54.4272727,25.9969697 54.4,25.9878788 C54.3636364,25.969697 54.3484848,25.9151515 54.3242424,25.8757576 C54.369697,25.8606061 54.4272727,25.8181818 54.4545455,25.830303 Z M48.8939394,32.0363636 C48.6454545,32.4090909 48.2272727,32.4424242 47.7969697,32.4454545 C47.7969697,32.4575758 47.7969697,32.469697 47.7939394,32.4818182 C47.7757576,32.4787879 47.7545455,32.4787879 47.7363636,32.4787879 C47.469697,33.2424242 46.730303,33.3545455 45.9757576,33.4212121 C45.9060606,33.430303 45.7666667,33.2969697 45.7484848,33.2151515 C45.730303,33.1242424 45.7818182,32.9848485 45.8606061,32.9181818 C46.3909091,32.4636364 47.0424242,32.3878788 47.7363636,32.4787879 C47.7393939,32.4666667 47.7454545,32.4575758 47.7484848,32.4454545 L47.7969697,32.4454545 C47.8393939,31.6939394 48.0181818,31.4969697 48.6272727,31.5545455 C48.7333333,31.5666667 48.8666667,31.6515152 48.9151515,31.7363636 C48.9606061,31.8151515 48.9484848,31.9575758 48.8939394,32.0363636 Z M47.2363636,33.8151515 L47.2878788,33.7060606 L47.369697,33.7969697 L47.2363636,33.8151515 Z M44.4666667,30.5181818 L44.4121212,30.4272727 L44.5181818,30.4212121 L44.4666667,30.5181818 Z M42.9848485,24.0515152 C42.9151515,24.1090909 42.8393939,24.1606061 42.7636364,24.2121212 C42.7545455,24.2424242 42.7454545,24.269697 42.7363636,24.2969697 C42.7151515,24.3 42.6969697,24.3030303 42.6787879,24.3060606 C42.4121212,24.7575758 42.4727273,25.1909091 42.9212121,25.6333333 C42.0090909,25.4060606 41.8212121,25.3 41.8393939,25.0272727 C41.869697,24.6393939 42.1181818,24.4090909 42.5454545,24.3242424 C42.5878788,24.3151515 42.6333333,24.3121212 42.6787879,24.3060606 C42.6848485,24.2909091 42.6878788,24.2787879 42.6969697,24.2636364 C42.7181818,24.2454545 42.7424242,24.230303 42.7636364,24.2121212 C42.7909091,24.1333333 42.8181818,24.0545455 42.8666667,23.9878788 C42.9,23.9424242 43.0121212,23.9393939 43.0878788,23.9181818 C43.0545455,23.9636364 43.030303,24.0181818 42.9848485,24.0515152 Z M42.7484848,30.3848485 C42.5848485,30.2515152 42.4090909,30.1272727 42.2727273,29.9727273 C42.2454545,29.9424242 42.369697,29.8090909 42.4878788,29.6151515 C42.6484848,29.8151515 42.7939394,29.9636364 42.8878788,30.1333333 C42.9151515,30.1848485 42.8,30.3 42.7484848,30.3848485 Z M41.1242424,14.9030303 C41.0393939,14.7727273 40.9545455,14.6424242 40.8363636,14.4606061 C41.0090909,14.3636364 41.1454545,14.2878788 41.2818182,14.2121212 C41.3484848,14.3484848 41.4818182,14.4939394 41.4575758,14.6151515 C41.4363636,14.7242424 41.2424242,14.8090909 41.1242424,14.9030303 Z M40.8060606,29.6909091 C40.8,29.7090909 40.7939394,29.7242424 40.7848485,29.7393939 C40.7666667,29.7454545 40.7515152,29.7515152 40.7333333,29.7575758 C40.7121212,29.8454545 40.7,29.9333333 40.6484848,30.0030303 C40.6242424,30.0333333 40.4727273,29.9909091 40.3787879,29.9848485 C40.4,29.9363636 40.4090909,29.8666667 40.4484848,29.8484848 C40.5363636,29.8090909 40.6363636,29.7848485 40.7333333,29.7575758 C40.7363636,29.7393939 40.7393939,29.7212121 40.7454545,29.7030303 C40.7636364,29.7 40.7848485,29.6939394 40.8060606,29.6909091 C40.8393939,29.6090909 40.8666667,29.5272727 40.9121212,29.4515152 C40.9333333,29.4181818 41.0090909,29.4090909 41.0575758,29.3909091 C41.0666667,29.469697 41.1090909,29.5939394 41.0727273,29.6151515 C41,29.6606061 40.9030303,29.6727273 40.8060606,29.6909091 Z M39.9666667,7.58484848 C39.5969697,7.27575758 39.230303,6.93939394 39.7636364,6.47272727 C39.8454545,6.4 39.8242424,6.17272727 39.7636364,6.05151515 C39.6454545,5.80909091 39.6212121,5.59393939 39.969697,5.58787879 C40.1818182,5.58484848 40.530303,5.70606061 40.5848485,5.84242424 C40.7272727,6.1969697 40.7424242,6.59393939 40.7757576,6.78484848 C40.7757576,7.08787879 40.8090909,7.20909091 40.7666667,7.3030303 C40.7,7.44242424 40.6030303,7.62424242 40.4666667,7.66969697 C40.330303,7.71818182 40.0727273,7.67575758 39.9666667,7.58484848 Z M39.769697,26.2636364 L39.769697,24.9939394 C40.0030303,25.6666667 40.0030303,25.6666667 39.769697,26.2636364 Z M39.2939394,8.46363636 C39.3969697,8.42424242 39.5515152,8.32727273 39.5909091,8.35454545 C39.7333333,8.45151515 39.8454545,8.59090909 39.9424242,8.72727273 C39.9515152,8.74242424 39.7848485,8.90909091 39.7030303,8.90606061 C39.4060606,8.89393939 39.2454545,8.74545455 39.2939394,8.46363636 Z M39.3666667,12.7363636 C39.1727273,12.6636364 38.9030303,12.4939394 38.8878788,12.3454545 C38.8272727,11.7333333 39.1393939,11.1848485 39.3636364,10.4121212 C39.6424242,10.7090909 39.8939394,10.8545455 39.8969697,11.0030303 C39.9060606,11.4909091 39.8484848,11.9848485 39.7606061,12.469697 C39.7393939,12.5818182 39.4454545,12.7666667 39.3666667,12.7363636 Z M38.9363636,17.0878788 C38.8939394,17.2484848 38.5939394,17.3575758 38.2848485,17.5787879 C37.869697,16.4181818 37.8272727,15.4848485 38.8121212,14.6939394 C38.8,14.6818182 38.7939394,14.6666667 38.7818182,14.6515152 C38.8909091,14.6333333 39,14.6181818 39.1090909,14.6 C39.0151515,14.630303 38.9151515,14.6575758 38.8181818,14.6878788 C38.8151515,14.6909091 38.8151515,14.6939394 38.8121212,14.6939394 C39.3666667,15.4666667 39.1515152,16.2878788 38.9363636,17.0878788 Z M40.6636364,4.4030303 C40.7090909,4.42121212 40.7787879,4.42727273 40.7969697,4.45757576 C40.8151515,4.48181818 40.7757576,4.53636364 40.7606061,4.57878788 C40.7121212,4.56060606 40.6666667,4.54545455 40.6181818,4.53030303 C40.6333333,4.48787879 40.6484848,4.44545455 40.6636364,4.4030303 Z M40.8363636,2.71818182 L40.9090909,2.7969697 L40.7939394,2.81818182 L40.8363636,2.71818182 Z M42.4787879,21.8242424 C42.5757576,21.8030303 42.7,21.869697 42.8121212,21.8969697 C42.7515152,21.9727273 42.7030303,22.1 42.6242424,22.1151515 C42.4545455,22.1484848 42.269697,22.1242424 41.8515152,22.1242424 C42.1969697,21.9545455 42.330303,21.8606061 42.4787879,21.8242424 Z M47.6181818,2.28787879 C47.7575758,2.36969697 47.8969697,2.44848485 48.0363636,2.52727273 C47.9757576,2.60909091 47.8969697,2.76666667 47.8575758,2.76060606 C47.7030303,2.73333333 47.5575758,2.65151515 47.4030303,2.58787879 C47.4969697,2.45757576 47.5575758,2.37272727 47.6181818,2.28787879 Z M50.6606061,7.26969697 C50.6818182,7.26363636 50.7606061,7.36060606 50.7484848,7.37575758 C50.7030303,7.44848485 50.630303,7.50909091 50.5666667,7.57575758 C50.5060606,7.5030303 50.4454545,7.43333333 50.3818182,7.36363636 C50.4757576,7.33030303 50.5666667,7.28787879 50.6606061,7.26969697 Z M51.4454545,10.7969697 C51.5,10.8090909 51.6,10.8181818 51.6,10.8333333 C51.6090909,10.9242424 51.5939394,11.0181818 51.5878788,11.1090909 C51.530303,11.1 51.430303,11.0909091 51.430303,11.0787879 C51.4242424,10.9848485 51.4363636,10.8909091 51.4454545,10.7969697 Z M53.6454545,5.48181818 C53.7575758,5.58181818 53.8727273,5.68181818 53.9757576,5.78787879 C53.9818182,5.79090909 53.8818182,5.9030303 53.8575758,5.89393939 C53.6909091,5.84848485 53.530303,5.78181818 53.3666667,5.72121212 C53.4424242,5.65454545 53.5151515,5.59090909 53.6454545,5.48181818 Z M54.0121212,11.2939394 C53.8090909,11.2363636 53.6242424,11.1333333 53.4363636,11.0484848 C53.530303,10.8727273 53.5757576,10.7848485 53.6242424,10.6969697 C53.8212121,10.7878788 54.0181818,10.8787879 54.2181818,10.969697 C54.1454545,11.0818182 54.0393939,11.3 54.0121212,11.2939394 Z M52.9878788,30.9848485 C53.2242424,30.8060606 53.3969697,30.6121212 53.4636364,30.6393939 C53.5030303,30.6515152 53.530303,30.6909091 53.5666667,30.7151515 C53.8787879,30.2636364 54.1636364,29.7787879 54.4030303,29.2333333 C54.4212121,29.1909091 54.4333333,29.1484848 54.4515152,29.1060606 C54.0242424,29.0757576 53.5818182,29.0363636 53.0484848,28.9969697 C53.6727273,28.4969697 54.1333333,28.1272727 54.7545455,27.6272727 C54.8242424,27.7030303 54.869697,27.7484848 54.930303,27.8090909 C55.0878788,27.2909091 55.2181818,26.7666667 55.3090909,26.2333333 C55.4848485,25.2030303 55.5878788,24.0787879 55.6121212,22.8606061 L55.6121212,20.1606061 L49.2909091,20.1606061 L49.2909091,23.4454545 C49.2909091,24.169697 49.2606061,24.8121212 49.2,25.3727273 C49.1424242,25.9363636 49.030303,26.5090909 48.8636364,27.0939394 C48.6969697,27.6818182 48.4242424,28.1333333 48.0454545,28.4545455 C47.6666667,28.7727273 47.2,28.9333333 46.6454545,28.9333333 C44.7727273,28.9333333 43.8393939,27.3636364 43.8393939,24.2272727 L43.8393939,20.6121212 C43.8030303,20.6090909 43.769697,20.6090909 43.7363636,20.6060606 C43.7393939,20.5606061 43.7424242,20.5121212 43.7454545,20.4666667 C43.7757576,20.469697 43.8060606,20.469697 43.8393939,20.4727273 L43.8393939,10.430303 C43.8393939,7.28181818 44.7727273,5.70909091 46.6454545,5.70909091 C46.769697,5.70909091 46.8818182,5.73939394 46.9969697,5.75454545 C47.0090909,5.73939394 47.0212121,5.72121212 47.030303,5.70606061 C47.0636364,5.11212121 47.0969697,5.08181818 47.7757576,4.57575758 C47.4090909,5.13333333 47.2151515,5.42727273 47.030303,5.70606061 C47.030303,5.72424242 47.0272727,5.74242424 47.0272727,5.76060606 C47.3363636,5.80909091 47.6212121,5.8969697 47.8606061,6.06363636 C48.1969697,6.3 48.4515152,6.58787879 48.6242424,6.92424242 C48.7939394,7.26060606 48.930303,7.7 49.0333333,8.23939394 C49.0545455,8.35454545 49.0545455,8.43636364 49.0727273,8.54848485 C49.4424242,8.53030303 49.6606061,8.60606061 50.3545455,8.87575758 C50.2272727,9.22424242 50.1,9.57878788 49.9030303,10.1242424 C49.5969697,9.72121212 49.4,9.46363636 49.2030303,9.20606061 C49.1909091,9.19090909 49.1666667,9.18787879 49.1545455,9.17575758 C49.169697,9.33636364 49.2090909,9.53030303 49.2181818,9.67575758 C49.2424242,10.0969697 49.2545455,10.5969697 49.2545455,11.1757576 L49.2545455,14.1242424 L55.6121212,14.1242424 L55.6121212,11.3727273 C55.6121212,10.1060606 55.5121212,8.94545455 55.3181818,7.89090909 C55.1212121,6.83939394 54.8030303,5.86363636 54.3575758,4.96363636 C53.9151515,4.06363636 53.3484848,3.30606061 52.6636364,2.69090909 C51.9757576,2.07575758 51.1272727,1.59090909 50.1151515,1.24242424 C49.1030303,0.893939394 47.9454545,0.718181818 46.6454545,0.718181818 C46.5454545,0.718181818 46.4636364,0.739393939 46.3666667,0.742424242 C46.2909091,0.760606061 46.2181818,0.784848485 46.1424242,0.803030303 C46.1333333,0.806060606 46.1060606,0.76969697 46.0939394,0.763636364 C40.3,0.996969697 37.3757576,4.73333333 37.3757576,12.0484848 L37.3757576,20.7757576 C37.5212121,20.0939394 37.6575758,19.4636364 37.8030303,18.869697 C37.8242424,18.7909091 38.1060606,18.7333333 38.2727273,18.7242424 C38.330303,18.7212121 38.4787879,18.8969697 38.4606061,18.969697 C38.2606061,19.7787879 38.0424242,20.5878788 37.8090909,21.3909091 C37.7909091,21.4545455 37.6393939,21.5333333 37.3757576,21.6939394 L37.3757576,22.630303 C37.3757576,22.9939394 37.4393939,23.2818182 37.4545455,23.6272727 C37.4727273,23.6666667 37.4939394,23.7060606 37.5151515,23.7424242 C37.4969697,23.7515152 37.4818182,23.7606061 37.4636364,23.769697 C37.5030303,24.6 37.5272727,25.4484848 37.6515152,26.1818182 C37.8333333,27.2575758 38.1515152,28.2848485 38.6,29.2606061 C39.0515152,30.2393939 39.6212121,31.0606061 40.3151515,31.730303 C41.0060606,32.3969697 41.8878788,32.930303 42.9606061,33.3272727 C44.030303,33.7242424 45.2575758,33.9212121 46.6454545,33.9212121 C47.9939394,33.9212121 49.1878788,33.7181818 50.230303,33.3090909 C51.2727273,32.9 52.1212121,32.3636364 52.7787879,31.6939394 C52.9454545,31.5242424 53.0818182,31.3181818 53.2333333,31.130303 C53.1575758,31.0848485 53.0818182,31.0363636 52.9878788,30.9848485 L52.9878788,30.9848485 Z" id="Fill-1"></path>
            <path d="M28.2818182,15.8151515 C28.1090909,16.0818182 27.969697,16.2969697 27.8272727,16.5151515 C27.7818182,16.2030303 27.5636364,15.7181818 28.2818182,15.8151515 Z M28.7151515,8.57272727 C28.7212121,8.55454545 28.7272727,8.53939394 28.7333333,8.52424242 L28.7727273,8.55757576 C28.7545455,8.56363636 28.7363636,8.56666667 28.7151515,8.57272727 C28.6939394,8.65454545 28.6757576,8.73939394 28.6363636,8.81818182 C28.6212121,8.85151515 28.5454545,8.86363636 28.4969697,8.88181818 C28.4787879,8.80606061 28.4181818,8.67575758 28.4484848,8.65757576 C28.5242424,8.61212121 28.6212121,8.59393939 28.7151515,8.57272727 Z M28.9454545,13.6424242 C28.9212121,13.6848485 28.9121212,13.7424242 28.8727273,13.7636364 C28.8454545,13.7757576 28.7818182,13.7393939 28.7363636,13.7272727 C28.7575758,13.6848485 28.769697,13.6242424 28.8060606,13.6060606 C28.8363636,13.5909091 28.8969697,13.6272727 28.9454545,13.6424242 Z M29.3636364,28.930303 C29.2969697,28.9606061 29.2121212,29.0030303 29.1272727,29.0454545 C29.1212121,29.0454545 29.1151515,29.0484848 29.1090909,29.0515152 C29.4090909,29.6484848 29.7121212,30.2515152 30.0818182,30.9848485 C29.6636364,31.0151515 29.3545455,31.1030303 29.0939394,31.0393939 C28.7575758,30.9545455 28.6575758,30.669697 28.7,30.3545455 C28.7484848,29.9727273 28.7575758,29.5878788 28.8181818,29.2060606 C28.830303,29.1454545 29,29.1030303 29.1090909,29.0515152 C29.1030303,29.0393939 29.0969697,29.0242424 29.0909091,29.0121212 C29.1878788,28.9818182 29.2878788,28.9515152 29.3636364,28.930303 Z M29.5636364,18.1090909 C29.5757576,18.0939394 29.7060606,18.1272727 29.7121212,18.1515152 C29.730303,18.2363636 29.7181818,18.3242424 29.7181818,18.4090909 C29.6242424,18.3787879 29.530303,18.3484848 29.4333333,18.3181818 C29.4727273,18.2454545 29.5090909,18.169697 29.5636364,18.1090909 Z M29.9606061,23.9272727 L29.9333333,23.9575758 L29.8909091,23.8818182 L29.9606061,23.9272727 Z M30.0515152,19.3515152 C29.9727273,19.3939394 29.8969697,19.4484848 29.8121212,19.4757576 C29.7757576,19.4848485 29.669697,19.4151515 29.6727273,19.4090909 C29.7030303,19.3363636 29.7515152,19.2727273 29.7939394,19.2030303 C29.8787879,19.2515152 29.9666667,19.3 30.0515152,19.3515152 Z M30.1545455,21.4363636 C30.1030303,21.4272727 30.0393939,21.4333333 30.0060606,21.4090909 C29.9787879,21.3848485 29.9909091,21.3272727 29.9848485,21.2848485 C30.0333333,21.269697 30.0818182,21.2515152 30.130303,21.2363636 C30.1393939,21.3030303 30.1454545,21.369697 30.1545455,21.4363636 Z M30.1090909,20.430303 L30.1878788,20.5333333 L30.0636364,20.5515152 L30.1090909,20.430303 Z M30.8787879,6.60606061 C30.7151515,6.27878788 30.5484848,5.95151515 30.1909091,5.25151515 C31.0848485,5.73636364 31.1121212,6.12424242 30.8787879,6.60606061 Z M31.3818182,24.8878788 C31.4575758,24.9454545 31.5363636,25 31.6121212,25.0575758 C31.5181818,25.1 31.4242424,25.1575758 31.3242424,25.1848485 C31.2878788,25.1939394 31.230303,25.1363636 31.1818182,25.1060606 C31.2484848,25.0333333 31.3151515,24.9606061 31.3818182,24.8878788 Z M31.6545455,30.1606061 C31.5090909,30.3818182 31.3454545,30.5939394 31.1939394,30.8060606 C30.6545455,30.5424242 30.6818182,30.2060606 30.8878788,29.9121212 C30.9909091,29.7636364 31.3,29.6212121 31.4848485,29.6484848 C31.7848485,29.6878788 31.8,29.9393939 31.6545455,30.1606061 Z M31.9030303,2.37878788 C31.930303,2.4030303 31.9575758,2.42727273 31.9848485,2.45151515 C32.1909091,2.52121212 32.3939394,2.59393939 32.5969697,2.66363636 C32.5515152,2.73030303 32.5090909,2.7969697 32.4636364,2.86666667 C32.3060606,2.72727273 32.1454545,2.59090909 31.9848485,2.45151515 C31.9454545,2.43939394 31.9060606,2.42424242 31.8666667,2.41212121 L31.9030303,2.37878788 Z M33.1939394,7.32121212 C33.2787879,7.36969697 33.2969697,7.5030303 33.3424242,7.6 C33.2363636,7.61212121 33.1060606,7.66666667 33.030303,7.63030303 C32.8666667,7.55151515 32.7333333,7.42424242 32.5878788,7.31818182 C32.6181818,7.25757576 32.6484848,7.2 32.6757576,7.13939394 C32.8515152,7.1969697 33.0424242,7.23333333 33.1939394,7.32121212 Z M32.8424242,14.169697 C33.1363636,13.5969697 33.3363636,13.2060606 33.5606061,12.769697 C34.2090909,13.6757576 34.0424242,14.0787879 32.8424242,14.169697 Z M33.7,18.430303 L33.7212121,18.2969697 L33.8363636,18.3636364 L33.7,18.430303 Z M33.5424242,23.9393939 L33.5969697,23.8393939 L33.6575758,23.9393939 L33.5424242,23.9393939 Z M30.5121212,26.6636364 L30.4515152,26.5757576 L30.5575758,26.569697 L30.5121212,26.6636364 Z M28.4818182,22.3848485 C28.3484848,22.4030303 28.1878788,22.269697 27.9030303,22.1454545 C28.1939394,22.0333333 28.3424242,21.9424242 28.5,21.9272727 C28.6,21.9181818 28.7121212,22.0242424 28.8181818,22.0787879 C28.7090909,22.1878788 28.6121212,22.3666667 28.4818182,22.3848485 Z M27.5212121,8.97878788 L27.5212121,27.6060606 C27.6060606,27.6606061 27.7030303,27.7121212 27.7606061,27.7787879 C27.8060606,27.8333333 27.7242424,27.969697 27.7,28.0666667 C27.6393939,28.0333333 27.5848485,27.9939394 27.5212121,27.9636364 L27.5212121,33.3 L33.9848485,33.3 L33.9848485,27.8030303 C33.9757576,27.8242424 33.969697,27.8454545 33.9606061,27.8636364 C33.9090909,27.8454545 33.8151515,27.8151515 33.8151515,27.8090909 C33.8424242,27.7242424 33.8818182,27.6424242 33.9181818,27.5606061 C33.9424242,27.569697 33.9575758,27.5757576 33.9848485,27.5848485 L33.9848485,20.2848485 C33.9666667,20.2636364 33.9484848,20.2454545 33.930303,20.2242424 C33.9484848,20.2181818 33.9666667,20.2151515 33.9848485,20.2060606 L33.9848485,4.16060606 L33.9545455,4.16363636 L33.9848485,4.08181818 L33.9848485,1.33939394 L27.5212121,1.33939394 L27.5212121,8.96060606 L27.5212121,8.97878788 L27.5212121,8.97878788 Z" id="Fill-2"></path>
            <path d="M19.6090909,28.0606061 C19.5878788,28.2848485 19.5787879,28.5151515 19.530303,28.7363636 C19.4484848,29.1 19.1484848,29.2757576 18.7757576,29.3787879 C18.7757576,29.3969697 18.7727273,29.4151515 18.769697,29.4333333 C18.7242424,29.4242424 18.6787879,29.4242424 18.6333333,29.4181818 C18.3060606,29.5030303 17.9787879,29.5878788 17.6515152,29.6727273 C17.6272727,29.6909091 17.6030303,29.7030303 17.5818182,29.7272727 L17.5454545,29.6969697 C17.5787879,29.6878788 17.6151515,29.6787879 17.6515152,29.6727273 C17.9242424,29.4181818 18.2666667,29.3787879 18.6333333,29.4181818 C18.6666667,29.4121212 18.7,29.4030303 18.730303,29.3939394 C18.7484848,29.3909091 18.7606061,29.3848485 18.7757576,29.3787879 C19.0090909,27.5454545 19.1333333,25.6969697 19.6484848,23.8969697 C19.7242424,23.6272727 19.7909091,23.330303 19.7363636,23.0636364 C19.5090909,21.9181818 19.930303,20.8242424 20.0545455,19.7090909 C20.1,19.3151515 20.4181818,18.9454545 20.6363636,18.5636364 C20.6333333,18.5333333 20.630303,18.5 20.630303,18.469697 C20.6454545,18.4484848 20.6636364,18.4272727 20.6787879,18.4060606 C20.7333333,17.7515152 20.5060606,17.0333333 21.1909091,16.4242424 C21.6909091,17.2969697 21.1090909,17.8363636 20.6787879,18.4060606 C20.6757576,18.4363636 20.6757576,18.469697 20.6727273,18.5030303 C20.6606061,18.5242424 20.6484848,18.5424242 20.6363636,18.5636364 C20.6969697,19.9939394 20.8939394,21.4181818 20.4818182,22.8454545 C20.2939394,23.4969697 20.3424242,24.2 20.2636364,24.8787879 C20.2030303,25.4181818 20.3575758,25.8909091 20.7606061,26.3 C20.9484848,26.4909091 21.4181818,26.4363636 21.369697,26.8727273 C21.2,26.9151515 21.0242424,26.9909091 20.8454545,26.9969697 C20.0636364,27.0242424 19.6757576,27.3909091 19.6090909,28.0606061 Z M19.2,31.2969697 C18.9393939,31 18.7545455,30.8121212 18.6121212,30.6 C18.5878788,30.5636364 18.7090909,30.3969697 18.8030303,30.3545455 C19.0848485,30.2242424 19.4,30.4060606 19.4272727,30.7393939 C19.4393939,30.869697 19.3242424,31.0090909 19.2,31.2969697 Z M17.1454545,26.4030303 C17.1060606,26.3757576 17.0454545,26.3545455 17.0333333,26.3242424 C17.0242424,26.2878788 17.0606061,26.2424242 17.0787879,26.2 C17.1272727,26.2030303 17.1757576,26.2030303 17.2212121,26.2060606 C17.1969697,26.269697 17.169697,26.3363636 17.1454545,26.4030303 Z M15.9636364,23.1818182 C15.9787879,23.1909091 15.9969697,23.2 16.0121212,23.2090909 C16.0060606,23.2272727 15.9969697,23.2424242 15.9878788,23.2606061 C16.1242424,23.3545455 16.2818182,23.4333333 16.3848485,23.5484848 C16.569697,23.7575758 16.4575758,23.9484848 16.2393939,24.0757576 C16.1575758,24.1242424 15.9333333,24.1272727 15.9212121,24.0969697 C15.8606061,23.9606061 15.8121212,23.8030303 15.830303,23.6606061 C15.8484848,23.5242424 15.9272727,23.3909091 15.9878788,23.2606061 C15.9818182,23.2545455 15.9757576,23.2515152 15.969697,23.2484848 C15.9666667,23.2242424 15.9636364,23.2030303 15.9636364,23.1818182 C15.8060606,23.0909091 15.6484848,22.9969697 15.4909091,22.9060606 C15.6272727,22.7848485 15.7666667,22.6606061 15.9030303,22.5363636 C15.9,22.5151515 15.9,22.4939394 15.8969697,22.4727273 C15.930303,22.4787879 15.9666667,22.4848485 16,22.4909091 C16.1606061,22.4424242 16.3181818,22.3969697 16.4787879,22.3484848 C16.4848485,22.4242424 16.4909091,22.4969697 16.4969697,22.5727273 C16.330303,22.5454545 16.1666667,22.5181818 16,22.4909091 C15.9787879,22.4969697 15.9545455,22.5030303 15.9333333,22.5090909 C15.9242424,22.5181818 15.9121212,22.5272727 15.9030303,22.5363636 C15.9242424,22.7515152 15.9424242,22.9666667 15.9636364,23.1818182 Z M16.2,33.1666667 C16.1606061,33.0787879 16.1363636,33.0212121 16.1121212,32.9636364 C16.1575758,32.9757576 16.2060606,32.9848485 16.2545455,32.9939394 C16.2393939,33.0393939 16.2242424,33.0818182 16.2,33.1666667 Z M15.3969697,26.7212121 C15.3212121,26.7484848 15.2,26.669697 15.1,26.6363636 C15.1545455,26.5545455 15.1909091,26.4242424 15.2636364,26.4030303 C15.3484848,26.3787879 15.469697,26.4545455 15.5727273,26.4848485 C15.5181818,26.569697 15.4787879,26.6969697 15.3969697,26.7212121 Z M18.5333333,17.7121212 C18.8060606,17.9606061 19.0363636,18.0818182 19.1121212,18.2545455 C19.2545455,18.5757576 18.9606061,18.9272727 18.5606061,18.9060606 C18.369697,18.8939394 18.0242424,18.669697 18.0393939,18.6151515 C18.130303,18.3363636 18.3151515,18.0818182 18.5333333,17.7121212 Z M19.0090909,20.6787879 C18.930303,20.7363636 18.8242424,20.7606061 18.7242424,20.7939394 C18.7212121,20.8090909 18.7212121,20.8272727 18.7181818,20.8424242 C18.6727273,20.8575758 18.6272727,20.8727273 18.5818182,20.8878788 C18.6151515,20.8606061 18.6484848,20.8363636 18.6787879,20.8090909 C18.6939394,20.8030303 18.7090909,20.8 18.7242424,20.7939394 C18.7484848,20.5121212 18.7757576,20.2272727 18.8090909,19.8878788 C19.4787879,20.3212121 19.4818182,20.3333333 19.0090909,20.6787879 Z M19.9545455,2.2969697 C20,2.32121212 20.0818182,2.34545455 20.0848485,2.37575758 C20.0969697,2.46666667 20.0787879,2.56060606 20.0727273,2.65454545 C19.9909091,2.60909091 19.9090909,2.56363636 19.8272727,2.51818182 C19.869697,2.44545455 19.9121212,2.36969697 19.9545455,2.2969697 Z M20.9575758,13.9878788 C21.0878788,14.0090909 21.2181818,14.030303 21.3484848,14.0545455 C21.3060606,14.3121212 21.3060606,14.5848485 21.2030303,14.8242424 C21.1575758,14.9272727 20.8969697,14.9545455 20.7363636,15.0151515 C20.6909091,14.8636364 20.5848485,14.7 20.6212121,14.5666667 C20.6818182,14.3606061 20.8424242,14.1787879 20.9575758,13.9878788 Z M21.2151515,4.64848485 L21.2939394,4.75757576 L21.1636364,4.77272727 L21.2151515,4.64848485 Z M22.1333333,9.24545455 C22.1424242,9.22121212 22.1545455,9.1969697 22.1636364,9.17575758 C22.169697,9.17272727 22.1727273,9.16969697 22.1757576,9.16363636 C21.7939394,8.62727273 22.0424242,8.09393939 22.1969697,7.55757576 C22.1878788,7.55151515 22.1848485,7.54545455 22.1757576,7.53939394 L22.2121212,7.50606061 C22.2060606,7.52424242 22.2,7.53939394 22.1969697,7.55757576 C23.0060606,8.22727273 23.0030303,8.38181818 22.1757576,9.16363636 C22.1878788,9.17878788 22.1939394,9.19393939 22.2030303,9.20909091 C22.1818182,9.22121212 22.1575758,9.23333333 22.1333333,9.24545455 C22.0272727,9.4969697 21.9818182,9.82424242 21.3272727,9.64545455 C21.6666667,9.47878788 21.9030303,9.36060606 22.1333333,9.24545455 Z M13.9909091,9.13333333 C13.9484848,9.31212121 13.7575758,9.46666667 13.5545455,9.73939394 C13.0818182,9.19090909 12.7121212,8.76363636 12.3454545,8.33636364 C12.8333333,7.9969697 13.2121212,7.73333333 13.7121212,7.38484848 C14.1242424,8.47272727 14.1424242,8.47575758 13.9909091,9.13333333 Z M13.1454545,11.1424242 C13.0424242,11.1030303 12.9424242,11.0606061 12.8424242,11.0181818 C12.8909091,10.9363636 12.930303,10.7969697 12.9939394,10.7848485 C13.0818182,10.7727273 13.1878788,10.8575758 13.2878788,10.9 C13.2393939,10.9818182 13.1939394,11.0636364 13.1454545,11.1424242 Z M12.4454545,5.04242424 C12.5454545,5.07878788 12.7242424,5.16060606 12.7181818,5.18181818 C12.6545455,5.36060606 12.5636364,5.53030303 12.4787879,5.7 C12.4848485,5.72424242 12.4909091,5.74545455 12.4969697,5.76969697 C12.4545455,5.85454545 12.4121212,5.94242424 12.3818182,6.0030303 C12.4030303,5.93333333 12.430303,5.83333333 12.4606061,5.73636364 C12.4666667,5.72424242 12.4727273,5.71212121 12.4787879,5.7 C12.4272727,5.51818182 12.369697,5.33636364 12.330303,5.15151515 C12.3242424,5.12121212 12.4242424,5.03636364 12.4454545,5.04242424 Z M13.5818182,5.73333333 C13.6515152,5.79393939 13.7242424,5.85454545 13.7939394,5.91818182 C13.7090909,5.97878788 13.6272727,6.04242424 13.5424242,6.1030303 C13.5060606,6.06363636 13.4333333,6.01515152 13.4424242,5.98787879 C13.4727273,5.8969697 13.5333333,5.81818182 13.5818182,5.73333333 Z M10.5454545,6.36363636 C10.4757576,6.31515152 10.4,6.27272727 10.3333333,6.21818182 C10.330303,6.21515152 10.3878788,6.14848485 10.4151515,6.11212121 C10.4878788,6.16060606 10.5636364,6.20606061 10.630303,6.26060606 C10.6333333,6.26363636 10.5757576,6.32727273 10.5454545,6.36363636 Z M10.1666667,14.0363636 C9.91212121,14.2878788 9.60606061,14.2666667 9.30909091,14.1151515 C9.22424242,14.0727273 9.2,13.9363636 9.14545455,13.8424242 C9.1969697,13.8060606 9.25151515,13.7333333 9.29393939,13.7393939 C9.58484848,13.7727273 9.87575758,13.8212121 10.1636364,13.8787879 C10.1787879,13.8818182 10.1969697,14.0060606 10.1666667,14.0363636 Z M9.48181818,29.0030303 C9.37878788,28.9575758 9.27575758,28.9121212 9.17272727,28.8666667 C9.22121212,28.7727273 9.24545455,28.6424242 9.33030303,28.5969697 C9.4,28.5606061 9.53939394,28.6272727 9.64848485,28.6454545 C9.59393939,28.7636364 9.53636364,28.8848485 9.48181818,29.0030303 Z M9.03636364,19.1181818 L9.0030303,19.0878788 C9.01212121,19.0787879 9.02727273,19.069697 9.03939394,19.0606061 C9.16969697,18.0757576 8.17575758,17.2909091 8.31818182,16.1727273 C8.77575758,16.4606061 9.13030303,16.6848485 9.51515152,16.9272727 C9.51515152,17.5272727 9.55151515,18.0939394 9.49090909,18.6515152 C9.47575758,18.8 9.21212121,18.9272727 9.03939394,19.0606061 C9.03636364,19.0818182 9.03939394,19.1 9.03636364,19.1181818 Z M8.62727273,21.1484848 L8.69090909,21.0666667 L8.74545455,21.1606061 L8.62727273,21.1484848 Z M8.4969697,30.1606061 C8.32121212,30.1030303 8.11212121,30.0545455 8.11515152,30.0272727 C8.13333333,29.8818182 8.2030303,29.7393939 8.25757576,29.5969697 C8.36363636,29.630303 8.56060606,29.6575758 8.56363636,29.6969697 C8.57575758,29.8454545 8.52424242,29.9969697 8.4969697,30.1606061 Z M7.27575758,31.8454545 C7.14242424,31.7727273 6.94848485,31.6363636 6.96363636,31.5484848 C6.98181818,31.4363636 7.18181818,31.3484848 7.38484848,31.1818182 C7.45757576,31.4 7.54242424,31.5363636 7.53030303,31.6606061 C7.52424242,31.7333333 7.30606061,31.8636364 7.27575758,31.8454545 Z M7.11212121,29.8878788 L6.97575758,29.9606061 L6.96363636,29.8363636 L7.11212121,29.8878788 Z M6.63636364,18.2636364 C6.63333333,18.2484848 6.74242424,18.1757576 6.76363636,18.1878788 C6.84545455,18.2242424 6.91212121,18.2878788 6.98484848,18.3393939 C6.90909091,18.3939394 6.83333333,18.4484848 6.75454545,18.5030303 C6.71515152,18.4242424 6.66363636,18.3454545 6.63636364,18.2636364 Z M6.29090909,25.4636364 C6.21515152,25.4242424 6.14545455,25.3727273 6.07575758,25.3212121 C6.10909091,25.2848485 6.14242424,25.2454545 6.17575758,25.2060606 C6.24848485,25.2575758 6.32121212,25.3090909 6.39090909,25.3606061 C6.35757576,25.3969697 6.2969697,25.469697 6.29090909,25.4636364 Z M4.84242424,28.8333333 C4.78484848,28.7878788 4.76969697,28.6121212 4.82121212,28.5666667 C4.87575758,28.5121212 5.05151515,28.4939394 5.13030303,28.5333333 C5.32424242,28.6333333 5.49393939,28.7727273 5.69393939,28.9121212 C5.2969697,29.2030303 5.06363636,29 4.84242424,28.8333333 Z M4.77575758,30.8606061 C4.75757576,30.8121212 4.71515152,30.7545455 4.73030303,30.7242424 C4.75151515,30.6878788 4.82424242,30.6727273 4.87575758,30.6515152 C4.89393939,30.6969697 4.94242424,30.7545455 4.92424242,30.7878788 C4.90606061,30.8242424 4.82727273,30.8363636 4.77575758,30.8606061 Z M3.61818182,18.1727273 C3.5,18.1727273 3.35454545,17.969697 3.28181818,17.8333333 C3.24242424,17.7606061 3.2969697,17.5878788 3.37272727,17.5363636 C3.80909091,17.2363636 4.33939394,17.2424242 4.8,17.3969697 C5.00909091,17.4666667 5.08484848,17.8393939 5.20909091,18.0515152 C4.88484848,18.3848485 4.73333333,18.0030303 4.52424242,18.030303 C4.22121212,18.069697 3.92121212,18.1757576 3.61818182,18.1727273 Z M2.77575758,20.2272727 L2.89393939,20.1242424 L2.91818182,20.2545455 L2.77575758,20.2272727 Z M2.62424242,11.2818182 C2.59090909,11.2454545 2.56060606,11.2121212 2.52727273,11.1757576 C2.55454545,11.1363636 2.58181818,11.1 2.60909091,11.0606061 C2.64242424,11.0969697 2.7,11.130303 2.7030303,11.1666667 C2.70606061,11.2030303 2.65151515,11.2424242 2.62424242,11.2818182 Z M4.46969697,9.86060606 C4.78484848,10.4424242 4.70909091,10.9969697 4.33636364,11.530303 C4.34545455,11.5515152 4.35151515,11.569697 4.36060606,11.5909091 C4.2969697,11.669697 4.23333333,11.7454545 4.16969697,11.8242424 C4.22121212,11.7363636 4.26969697,11.6484848 4.32121212,11.5606061 C4.32727273,11.5515152 4.33030303,11.5393939 4.33636364,11.530303 C4.06060606,10.9575758 4.35757576,10.4151515 4.46969697,9.86060606 Z M25.1363636,2.14545455 C25.1090909,2.13030303 25.0878788,2.11818182 25.0606061,2.1 C25.0939394,2.06363636 25.1242424,2.03030303 25.1575758,1.99393939 L25.2484848,1.33939394 L23.9424242,1.33939394 C23.9272727,1.39393939 23.9242424,1.44242424 23.8878788,1.5030303 C23.4,2.28181818 23.2212121,3.08787879 23.5030303,3.94848485 C23.5848485,4.19090909 23.5393939,4.34545455 23.3848485,4.56060606 C23.1181818,4.93333333 22.9545455,5.36363636 22.7181818,5.75757576 C22.6151515,5.93030303 22.530303,6.2030303 22.1545455,6.03030303 C21.9818182,5.3969697 22.3212121,4.82727273 22.4757576,4.23030303 C22.5939394,3.76666667 22.5121212,3.33939394 22.0333333,3.01212121 C21.7060606,2.78787879 21.2363636,2.6030303 21.3878788,2.09393939 C22.5666667,2.21212121 22.569697,2.21212121 22.9515152,1.37878788 C22.9575758,1.36666667 22.9606061,1.35151515 22.9666667,1.33939394 L19.7272727,1.33939394 L17.6484848,22.3818182 L16.669697,14.6848485 C16.5818182,14.7090909 16.4909091,14.7363636 16.3909091,14.7060606 C16.1969697,14.6454545 16.0484848,14.4757576 15.7515152,14.2636364 C16.1242424,14.1060606 16.3545455,13.9272727 16.5393939,13.9575758 C16.5515152,13.9606061 16.5666667,13.9818182 16.5787879,13.9848485 L14.9666667,1.33939394 L14.0090909,1.33939394 C14.1030303,1.64242424 14.1333333,1.96060606 14.0909091,2.29090909 C14.1060606,2.3 14.1212121,2.30606061 14.1363636,2.31515152 C14.1272727,2.33636364 14.1181818,2.35757576 14.1090909,2.37878788 C14.4666667,3.02727273 14.4575758,3.05757576 13.6939394,3.33030303 C13.6848485,3.34848485 13.6757576,3.36969697 13.669697,3.38787879 C13.5969697,3.45757576 13.5272727,3.52727273 13.4575758,3.5969697 C13.5121212,3.51818182 13.569697,3.43636364 13.6272727,3.35454545 C13.6515152,3.34545455 13.669697,3.33939394 13.6939394,3.33030303 C13.8333333,3.01212121 13.969697,2.6969697 14.1090909,2.37878788 C14.1030303,2.36666667 14.0969697,2.35454545 14.0878788,2.34242424 C14.0909091,2.32424242 14.0909091,2.30909091 14.0909091,2.29090909 C13.7484848,2.12121212 13.4060606,1.95151515 13.0060606,1.75151515 C12.8363636,2.07878788 12.669697,2.40909091 12.5030303,2.73636364 L12.5090909,2.74242424 C12.5818182,3.00606061 12.6969697,3.26969697 12.7060606,3.53636364 C12.7090909,3.61818182 12.3787879,3.81212121 12.2909091,3.77878788 C11.5606061,3.48181818 11.2272727,2.63030303 11.5818182,2.06969697 C11.769697,1.76666667 12.0272727,1.54545455 12.2969697,1.33939394 L10.2272727,1.33939394 L7.49393939,22.5060606 L5.70606061,3.5 C5.7,3.49393939 5.68181818,3.5030303 5.67272727,3.4969697 C5.48181818,3.36969697 5.32727273,3.1969697 5.15757576,3.04545455 L5.11818182,3.08181818 C5.10606061,3.06060606 5.0969697,3.04242424 5.08484848,3.02121212 C4.93030303,2.98181818 4.77272727,2.94242424 4.62424242,2.89090909 C4.58484848,2.87878788 4.55454545,2.75454545 4.56060606,2.75151515 C4.65454545,2.70909091 4.82424242,2.63333333 4.84242424,2.65151515 C4.93939394,2.76666667 5.00909091,2.8969697 5.08484848,3.02121212 C5.10606061,3.02727273 5.12727273,3.03636364 5.14848485,3.03939394 C5.28787879,2.85151515 5.45151515,2.62424242 5.60606061,2.41818182 L5.5030303,1.33939394 L0,1.33939394 L4.42121212,33.3 L9.94242424,33.3 L10.6606061,27.5818182 C10.5818182,27.4333333 10.4848485,27.2727273 10.3454545,27.0515152 C10.5121212,26.9848485 10.6333333,26.9 10.7575758,26.8151515 L12.3242424,14.3454545 C12.269697,13.9606061 12.2151515,13.5575758 12.1454545,13.069697 C12.2757576,13.1212121 12.3757576,13.1545455 12.469697,13.1848485 L12.569697,12.3848485 L12.6878788,13.2969697 C12.7,13.3090909 12.7363636,13.3181818 12.7424242,13.330303 C12.8818182,13.6909091 13.0181818,14.069697 13.0393939,14.4484848 C13.0484848,14.6060606 12.9939394,14.730303 12.8787879,14.7939394 L15.2515152,33.3 L20.7727273,33.3 L25.1363636,2.14545455 L25.1363636,2.14545455 Z" id="Fill-3"></path>
            <path d="M71.2878788,26.3393939 C71.1848485,26.2363636 71.0818182,26.1333333 70.9121212,25.9575758 C71.1515152,25.8848485 71.3,25.8090909 71.4424242,25.8121212 C71.5121212,25.8121212 71.6545455,26.0090909 71.6272727,26.0454545 C71.5484848,26.1606061 71.4060606,26.2454545 71.2878788,26.3393939 Z M71.4484848,29.2030303 C71.3454545,29.1666667 71.1939394,29.1515152 71.1575758,29.0848485 C71.1242424,29.0272727 71.2181818,28.9121212 71.2545455,28.8212121 C71.3575758,28.8606061 71.5060606,28.8757576 71.5424242,28.9424242 C71.5757576,29 71.4848485,29.1121212 71.4484848,29.2030303 Z M70.7545455,27.3939394 C70.7,27.3181818 70.6424242,27.2424242 70.5878788,27.1636364 C70.6939394,27.1393939 70.7969697,27.1060606 70.9060606,27.0939394 C70.930303,27.0939394 71,27.2030303 70.9848485,27.2151515 C70.9212121,27.2818182 70.8333333,27.3363636 70.7545455,27.3939394 Z M70.9636364,2.00909091 C71.0545455,1.98181818 71.1848485,2.05151515 71.2969697,2.07878788 C71.2242424,2.19393939 71.1545455,2.30909091 71.0818182,2.42424242 C70.9848485,2.36666667 70.8878788,2.30909091 70.7909091,2.25151515 C70.8454545,2.16666667 70.8848485,2.03333333 70.9636364,2.00909091 Z M71.1848485,9.33030303 L71.1212121,9.22121212 L71.2484848,9.21818182 L71.1848485,9.33030303 Z M71.1090909,15.3060606 C71.1333333,15.3515152 71.1909091,15.4060606 71.1757576,15.4363636 C71.1606061,15.4757576 71.0818182,15.4909091 71.030303,15.5151515 C71.0060606,15.4727273 70.9818182,15.4272727 70.9575758,15.3848485 C71.0060606,15.3575758 71.0575758,15.330303 71.1090909,15.3060606 Z M69.5787879,22.1848485 C69.4515152,22.3060606 69.2848485,22.3969697 69.0606061,22.5515152 C68.5969697,22.1666667 68.2030303,21.8757576 67.8666667,21.5454545 C67.669697,21.3515152 67.469697,21.0848485 67.9818182,20.7939394 C68.4424242,21.2757576 69.4030303,21.130303 69.7575758,21.8060606 C69.6757576,21.9878788 69.6545455,22.1090909 69.5787879,22.1848485 Z M68.1969697,23.7030303 C68.0909091,23.6606061 67.9484848,23.6424242 67.8939394,23.569697 C67.8575758,23.5212121 67.9515152,23.3969697 67.9878788,23.3090909 C68.0909091,23.3484848 68.2393939,23.3666667 68.2818182,23.4363636 C68.3181818,23.4939394 68.230303,23.6121212 68.1969697,23.7030303 Z M68.7939394,17.8878788 C68.8272727,17.9242424 68.8909091,17.9848485 68.8848485,17.9909091 C68.8242424,18.0454545 68.7545455,18.0909091 68.6878788,18.1393939 C68.6545455,18.1030303 68.6242424,18.0666667 68.5909091,18.030303 C68.6575758,17.9818182 68.7272727,17.9363636 68.7939394,17.8878788 Z M68.7848485,8.39393939 C68.8242424,8.41212121 68.8424242,8.47272727 68.8666667,8.51515152 C68.8212121,8.53636364 68.7757576,8.55757576 68.730303,8.57575758 C68.7030303,8.53636364 68.6757576,8.49393939 68.6484848,8.45151515 C68.6969697,8.43030303 68.7545455,8.38181818 68.7848485,8.39393939 Z M69.1,7.16060606 C69.1121212,7.17878788 69.1272727,7.1969697 69.1424242,7.21515152 C69.230303,7.23636364 69.3181818,7.25757576 69.3878788,7.3 C69.4363636,7.32727273 69.4272727,7.42727273 69.4424242,7.49393939 C69.3939394,7.46666667 69.330303,7.45151515 69.2969697,7.41515152 C69.2393939,7.35454545 69.1909091,7.28484848 69.1424242,7.21515152 C69.1151515,7.20909091 69.0878788,7.2030303 69.0606061,7.1969697 L69.1,7.16060606 Z M69.4848485,19.7878788 C69.4666667,19.8242424 69.3939394,19.8363636 69.3424242,19.8606061 C69.3212121,19.8181818 69.3,19.7727273 69.2787879,19.730303 C69.3272727,19.7060606 69.3787879,19.6818182 69.430303,19.6575758 C69.4515152,19.7030303 69.5,19.7575758 69.4848485,19.7878788 Z M69.3454545,17.130303 C69.3242424,17.0878788 69.2787879,17.0393939 69.2909091,17.0030303 C69.3,16.9727273 69.369697,16.9545455 69.4151515,16.9333333 C69.4393939,17.0030303 69.4666667,17.0727273 69.4939394,17.1424242 C69.4454545,17.1393939 69.3939394,17.1363636 69.3454545,17.130303 Z M66.7515152,12.9939394 C66.7121212,12.9787879 66.7,12.9121212 66.6757576,12.8666667 C66.7272727,12.8484848 66.7909091,12.8030303 66.8272727,12.8181818 C66.8666667,12.830303 66.8787879,12.9 66.9030303,12.9454545 C66.8515152,12.9636364 66.7878788,13.0090909 66.7515152,12.9939394 Z M65.9878788,17.230303 C65.6424242,17.3848485 65.1969697,17.1333333 65.1636364,16.7727273 C65.2272727,16.6848485 65.2727273,16.5424242 65.3575758,16.5181818 C65.6969697,16.4242424 66.1878788,16.8242424 66.1060606,17.1090909 C66.0939394,17.1575758 66.0393939,17.2090909 65.9878788,17.230303 Z M64.4484848,24.3484848 C64.4030303,24.3666667 64.3606061,24.3848485 64.3151515,24.4060606 C64.2909091,24.3636364 64.269697,24.3242424 64.2454545,24.2848485 C64.2909091,24.2666667 64.3454545,24.2212121 64.3787879,24.2333333 C64.4151515,24.2454545 64.4272727,24.3090909 64.4484848,24.3484848 Z M64.069697,27.7272727 C63.9909091,27.7757576 63.8030303,27.7636364 63.7151515,27.7121212 C63.4030303,27.5272727 63.3787879,27.2515152 63.5181818,26.969697 C63.5606061,26.8848485 63.6969697,26.8333333 63.7909091,26.7666667 C63.8818182,26.8424242 64,26.9030303 64.0545455,26.9939394 C64.2,27.2333333 64.4575758,27.4909091 64.069697,27.7272727 Z M63.3,29.9666667 C63.2454545,29.9060606 63.1393939,29.8363636 63.1484848,29.7878788 C63.1818182,29.6515152 63.2424242,29.5212121 63.3,29.3909091 C63.2969697,29.3757576 63.2939394,29.3606061 63.2909091,29.3454545 C63.2878788,29.3242424 63.2878788,29.3030303 63.2848485,29.2818182 C62.7242424,28.8878788 62.7242424,28.8666667 62.8545455,28.2515152 C63.2515152,28.5545455 63.2363636,28.930303 63.2848485,29.2818182 C63.3,29.2939394 63.3121212,29.3030303 63.330303,29.3181818 C63.3212121,29.3424242 63.3090909,29.3666667 63.3,29.3909091 C63.330303,29.5363636 63.3666667,29.6818182 63.3848485,29.8272727 C63.3909091,29.8727273 63.330303,29.9212121 63.3,29.9666667 Z M62.3,19.8454545 C62.6181818,19.9030303 62.9363636,19.9575758 63.2575758,20.0151515 C63.2151515,20.1121212 63.1757576,20.2121212 63.1363636,20.3090909 L62.2363636,20.0636364 C62.2575758,19.9909091 62.2787879,19.9181818 62.3,19.8454545 Z M62.0393939,32.5515152 C62.0030303,32.5151515 61.9727273,32.4787879 61.9363636,32.4454545 C61.9606061,32.4030303 61.9757576,32.3363636 62.0121212,32.3242424 C62.0515152,32.3090909 62.1121212,32.3454545 62.1636364,32.3606061 C62.1212121,32.4242424 62.0787879,32.4878788 62.0393939,32.5515152 Z M62.6818182,17.9909091 C62.9393939,17.9090909 63.1909091,17.9515152 63.2393939,18.3363636 C62.9666667,18.5060606 62.6727273,18.7181818 62.3515152,18.8818182 C62.2030303,18.9575758 61.9969697,18.9454545 61.5212121,19.0151515 C62.1818182,18.1666667 62.1757576,18.1515152 62.6818182,17.9909091 Z M61.1727273,28.3030303 C60.4606061,27.8666667 60.230303,27.1545455 59.8636364,26.5030303 C60.3727273,26.1878788 60.8333333,26.2242424 61.3575758,26.5575758 C61.2909091,26.8030303 61.2090909,27.0606061 61.1515152,27.3272727 C61.0878788,27.6333333 61.6878788,27.8878788 61.1727273,28.3030303 Z M60.1,32 L60.0757576,31.8757576 L60.2333333,31.9212121 L60.1,32 Z M58.9515152,25.4878788 C60.1393939,24.6272727 60.1393939,24.6272727 61.3424242,25.5333333 C60.8333333,25.5333333 60.4545455,25.5969697 60.1181818,25.5181818 C59.7272727,25.4272727 59.3181818,25.9757576 58.9515152,25.4878788 Z M59.3575758,4.69393939 C59.3606061,4.71212121 59.3606061,4.73333333 59.3636364,4.75454545 C59.3515152,4.76363636 59.3454545,4.77575758 59.3333333,4.78181818 C59.4393939,5.17878788 59.5606061,5.57575758 59.6212121,5.97575758 C59.6333333,6.04848485 59.3515152,6.22727273 59.2181818,6.21818182 C59.0878788,6.21212121 58.8939394,6.04242424 58.8606061,5.91818182 C58.7333333,5.45757576 58.969697,5.09393939 59.3333333,4.78181818 C59.330303,4.76666667 59.3242424,4.74848485 59.3212121,4.73030303 C59.3333333,4.71818182 59.3454545,4.70606061 59.3575758,4.69393939 C59.3121212,4.1030303 59.2484848,3.51212121 59.2484848,2.92121212 C59.2484848,2.75454545 59.4666667,2.58787879 59.6212121,2.36969697 C60.369697,3.53333333 60.3545455,3.67878788 59.3575758,4.69393939 Z M59.7272727,14.3424242 C59.6212121,14.0424242 59.5424242,13.8939394 59.5212121,13.7393939 C59.5090909,13.6606061 59.6,13.569697 59.6454545,13.4848485 C59.7727273,13.569697 59.9212121,13.6424242 60.0151515,13.7515152 C60.0484848,13.7848485 59.9424242,13.9151515 59.7272727,14.3424242 Z M58.7181818,8.09393939 C58.7151515,8.03939394 58.6969697,7.98181818 58.7181818,7.93636364 C58.7272727,7.91515152 58.8151515,7.92424242 58.8666667,7.91818182 C58.869697,7.97272727 58.8848485,8.03030303 58.8666667,8.07878788 C58.8575758,8.0969697 58.769697,8.08787879 58.7181818,8.09393939 Z M62.930303,15.8515152 C63.0909091,15.8666667 63.3545455,15.9242424 63.3757576,16.0060606 C63.4515152,16.2848485 63.4424242,16.5787879 63.4636364,16.869697 C63.3151515,16.8939394 63.1666667,16.9181818 63.0181818,16.9424242 C62.9212121,16.6575758 62.8090909,16.3757576 62.7424242,16.0878788 C62.7242424,16.0181818 62.8727273,15.8484848 62.930303,15.8515152 Z M62.8818182,14.8757576 C62.9424242,14.9393939 63.0030303,15.0060606 63.0636364,15.069697 C63.0212121,15.0969697 62.9454545,15.1545455 62.9393939,15.1515152 C62.869697,15.0939394 62.8151515,15.0272727 62.7545455,14.9606061 C62.7969697,14.9333333 62.8393939,14.9060606 62.8818182,14.8757576 Z M72.2121212,8.86060606 C72.2424242,8.91818182 72.269697,8.97575758 72.3,9.03030303 C72.2515152,9.01818182 72.2030303,9.0030303 72.1545455,8.98787879 C72.1727273,8.94545455 72.1939394,8.9030303 72.2121212,8.86060606 Z M73.4030303,7.9969697 C73.4575758,8.06060606 73.5181818,8.12121212 73.5666667,8.19090909 C73.569697,8.19393939 73.4939394,8.24545455 73.4545455,8.27272727 C73.3969697,8.20909091 73.3393939,8.14545455 73.2818182,8.08181818 C73.3212121,8.05454545 73.3606061,8.02727273 73.4030303,7.9969697 Z M77.0393939,31.5848485 C76.8909091,31.8 76.8333333,32.1393939 76.369697,32.1424242 C76.2727273,32.0393939 76.1575758,31.9151515 76.0424242,31.7939394 C76.0333333,31.8090909 76.0212121,31.8212121 76.0121212,31.8363636 C75.9969697,31.8212121 75.9757576,31.8121212 75.9606061,31.7969697 C75.6272727,31.8242424 75.2878788,31.8515152 74.9030303,31.8818182 L74.9030303,33.2666667 C74.3151515,33.1424242 73.7878788,33.030303 73.1181818,32.8909091 C73.6606061,32.3333333 74.1363636,31.8454545 74.5848485,31.3818182 C75.1515152,31.3545455 75.6030303,31.4666667 75.9606061,31.7969697 C75.9848485,31.7939394 76.0121212,31.7909091 76.0393939,31.7909091 L76.0424242,31.7939394 C76.1727273,31.6242424 76.3060606,31.4545455 76.430303,31.2787879 C76.5606061,31.0939394 76.7060606,30.8909091 76.9242424,30.9212121 L74.5727273,24.5787879 C73.9848485,24.530303 73.4454545,24.4878788 72.930303,24.4393939 C72.8909091,24.4363636 72.8575758,24.3636364 72.8121212,24.3151515 C73.1030303,24.0818182 73.3969697,23.8484848 73.6878788,23.6181818 C73.6606061,23.5242424 73.6333333,23.4333333 73.6090909,23.3424242 C73.6484848,23.4212121 73.6909091,23.5030303 73.730303,23.5818182 C73.7151515,23.5939394 73.7030303,23.6060606 73.6878788,23.6181818 C73.8636364,23.6121212 74.0363636,23.6090909 74.2121212,23.6030303 L70.8090909,14.4272727 L77.3272727,1.33939394 L75.3181818,1.33939394 C75.1757576,1.68181818 74.969697,1.96666667 74.5272727,2.18484848 C74.0090909,2.43939394 73.7121212,2.90909091 74.1,3.49090909 C74.3212121,3.81818182 74.2030303,4.13333333 73.9969697,4.45151515 C73.5878788,5.08181818 73.2151515,5.73030303 72.7333333,6.52424242 C72.3848485,6.55151515 71.8909091,6.59090909 71.3969697,6.62121212 C71.3787879,6.62121212 71.3515152,6.53030303 71.3151515,6.45757576 C72.7212121,5.94242424 72.8969697,4.77575758 73.1454545,3.67272727 C73.2787879,3.08181818 73.2818182,2.47272727 73.3515152,1.77878788 C73.0151515,1.6969697 72.6636364,1.60606061 72.3060606,1.53333333 C72.1363636,1.5 72.0030303,1.44242424 71.9212121,1.33939394 L70.1,1.33939394 L67.530303,7.56060606 C67.630303,7.55151515 67.7272727,7.53636364 67.8272727,7.53333333 C67.8363636,7.52121212 67.8454545,7.51212121 67.8545455,7.5030303 L67.8878788,7.53030303 C67.8666667,7.53030303 67.8484848,7.53030303 67.8272727,7.53333333 C67.7212121,7.64848485 67.6242424,7.77272727 67.4939394,7.85757576 C67.4787879,7.86969697 67.4363636,7.84848485 67.4121212,7.84545455 L65.5818182,12.2848485 C65.5969697,12.3121212 65.6151515,12.3393939 65.630303,12.3636364 C65.5969697,12.3787879 65.5636364,12.3909091 65.5333333,12.4030303 L65.0909091,13.4666667 L65.0909091,9.16969697 C65.0424242,9.14545455 64.9939394,9.12121212 64.9424242,9.0969697 C64.7090909,9.31515152 64.6575758,9.76060606 64.1333333,9.62727273 C63.8121212,9.54545455 63.3545455,9.92424242 63.1606061,9.40909091 C63.9818182,8.70909091 64.1515152,8.6 65.0909091,8.33939394 L65.0909091,1.33939394 L58.630303,1.33939394 L58.630303,17.3636364 C59.1515152,17.3575758 59.6151515,17.1242424 60.0757576,17.5787879 C59.7606061,18.0090909 59.4454545,18.4424242 59.0636364,18.9606061 C58.8393939,18.7545455 58.7151515,18.5545455 58.630303,18.3545455 L58.630303,33.3 L64.5666667,33.3 C64.7727273,33.1848485 64.9515152,33.0272727 65.0909091,32.8424242 L65.0909091,22.6393939 C64.9909091,22.8848485 64.8636364,23.1121212 64.8030303,23.3878788 C64.3,22.9181818 64.4636364,22.4515152 64.4787879,22.0272727 C64.5272727,20.769697 65.4848485,19.8727273 66.3242424,18.5787879 C66.5212121,18.9727273 66.730303,19.1818182 66.6878788,19.3363636 C66.6575758,19.4424242 66.6181818,19.5515152 66.5848485,19.6606061 L68.2848485,24.8 C68.4666667,24.7666667 68.6515152,24.7242424 68.8272727,24.7454545 C69.2121212,24.7969697 69.5636364,24.930303 69.3454545,25.4333333 C69.0606061,25.4030303 68.769697,25.3909091 68.4757576,25.3818182 L71.0939394,33.3 L77.8060606,33.3 L77.1030303,31.4090909 C77.0818182,31.4727273 77.0666667,31.5424242 77.0393939,31.5848485 L77.0393939,31.5848485 Z" id="Fill-4"></path>
            <path d="M85.5333333,16.1515152 L85.6151515,16.2424242 L85.4545455,16.2484848 L85.5333333,16.1515152 Z M84.8393939,15.3878788 C84.8212121,15.3484848 84.7787879,15.3030303 84.7909091,15.2757576 C84.8030303,15.2454545 84.869697,15.2363636 84.9121212,15.2181818 C84.930303,15.2545455 84.9727273,15.3030303 84.9606061,15.3272727 C84.9454545,15.3575758 84.8818182,15.3666667 84.8393939,15.3878788 Z M84.5121212,3.87575758 C84.5848485,3.81818182 84.6545455,3.75757576 84.7272727,3.6969697 C84.7787879,3.77575758 84.8393939,3.84848485 84.8727273,3.93030303 C84.8818182,3.94545455 84.7787879,4.02727273 84.7606061,4.01818182 C84.669697,3.98484848 84.5939394,3.92727273 84.5121212,3.87575758 Z M83.9727273,24.1484848 C83.9636364,24.1454545 83.930303,24.0242424 83.9575758,24 C84.030303,23.9363636 84.130303,23.8939394 84.2181818,23.8424242 C84.2393939,23.9363636 84.2575758,24.0333333 84.2787879,24.130303 C84.1757576,24.1363636 84.0727273,24.1484848 83.9727273,24.1484848 Z M82.6121212,16.2424242 L82.7151515,16.1727273 L82.7393939,16.2727273 L82.6121212,16.2424242 Z M81.7363636,26.6212121 C81.669697,26.6242424 81.6,26.5 81.530303,26.4333333 C81.5969697,26.3545455 81.6636364,26.2757576 81.7333333,26.2 C81.8212121,26.2878788 81.9121212,26.3757576 82.0030303,26.4666667 C81.9151515,26.5212121 81.8272727,26.6212121 81.7363636,26.6212121 Z M81.9151515,30.8787879 C81.7757576,30.9636364 81.5878788,31.0575758 81.4363636,31.0363636 C81.2151515,31.0030303 81.0030303,30.9 80.7909091,30.8151515 C80.7818182,30.8212121 80.7727273,30.830303 80.7636364,30.8333333 C80.7424242,30.8242424 80.7212121,30.8151515 80.7,30.8030303 C80.369697,30.930303 80.0484848,31.0969697 79.7060606,31.1454545 C79.5787879,31.1636364 79.2939394,30.8909091 79.2636364,30.7272727 C79.2151515,30.4666667 79.5060606,30.3333333 79.7575758,30.4030303 C80.0848485,30.4969697 80.3878788,30.6606061 80.7,30.8030303 C80.7090909,30.8 80.7212121,30.7939394 80.730303,30.7909091 C80.7515152,30.8 80.769697,30.8060606 80.7909091,30.8151515 C80.9787879,30.6848485 81.1545455,30.5242424 81.3666667,30.4575758 C81.5,30.4151515 81.7181818,30.5151515 81.8636364,30.5969697 C81.930303,30.6363636 81.9575758,30.8545455 81.9151515,30.8787879 Z M79.1,29.4909091 C79.1878788,29.4606061 79.2545455,29.4393939 79.3212121,29.4181818 C79.3030303,29.4575758 79.2969697,29.5181818 79.2636364,29.5333333 C79.2333333,29.5484848 79.1757576,29.5121212 79.1,29.4909091 Z M79.7151515,27.3515152 C79.9030303,27.1727273 80.1757576,27.0969697 80.3454545,27.3545455 C80.4,27.4363636 80.2878788,27.669697 80.1757576,27.7575758 C79.9969697,27.8969697 79.7575758,27.9727273 79.5454545,28.0727273 C79.1727273,27.7 79.530303,27.530303 79.7151515,27.3515152 Z M80.8333333,29.3272727 C80.8393939,29.3666667 80.8,29.4121212 80.7818182,29.4545455 C80.6969697,29.4272727 80.6151515,29.3969697 80.5272727,29.3666667 C80.6,29.3151515 80.669697,29.2636364 80.7393939,29.2121212 C80.7727273,29.2515152 80.8242424,29.2878788 80.8333333,29.3272727 Z M80.3848485,25.2454545 C80.4727273,25.1424242 80.6727273,25.1121212 80.8242424,25.0484848 C80.8151515,25.2060606 80.8575758,25.3878788 80.7787879,25.5090909 C80.7060606,25.6242424 80.5030303,25.6727273 80.2363636,25.8151515 C80.3,25.5363636 80.2909091,25.3575758 80.3848485,25.2454545 Z M84.1727273,7.52727273 L84.1060606,7.61515152 L84.0484848,7.51515152 L84.1727273,7.52727273 Z M87.4484848,15.5333333 L87.3,15.5969697 L87.2939394,15.4727273 L87.4484848,15.5333333 Z M89.3060606,17.6393939 L89.3333333,17.7515152 L89.2151515,17.7090909 L89.3060606,17.6393939 Z M80.2030303,7.16969697 C80.1424242,7.08181818 80.0818182,6.9969697 79.9878788,6.86363636 C80.1363636,6.78787879 80.2787879,6.70606061 80.4333333,6.65454545 C80.4515152,6.64848485 80.6181818,6.87575758 80.5939394,6.9 C80.4878788,7.00909091 80.3363636,7.08181818 80.2030303,7.16969697 Z M79.8939394,13.5484848 L79.8757576,13.4333333 L80.0181818,13.4757576 L79.8939394,13.5484848 Z M87.7848485,4.63939394 C87.8484848,4.58484848 87.9212121,4.54242424 87.9878788,4.4969697 C87.9969697,4.47272727 88.0030303,4.44848485 88.0090909,4.42424242 L88.0484848,4.45454545 C88.0272727,4.46666667 88.0090909,4.48181818 87.9878788,4.4969697 C87.969697,4.56969697 87.9515152,4.64242424 87.9090909,4.7030303 C87.8787879,4.74545455 87.7757576,4.74545455 87.7060606,4.76363636 C87.730303,4.72121212 87.7484848,4.66969697 87.7848485,4.63939394 Z M88.3848485,2.55151515 C88.4636364,2.6030303 88.5454545,2.65151515 88.6151515,2.71212121 C88.6212121,2.71818182 88.5606061,2.78787879 88.530303,2.82727273 C88.4515152,2.77575758 88.3757576,2.72727273 88.3,2.67575758 C88.3272727,2.63333333 88.3575758,2.59090909 88.3848485,2.55151515 Z M91.5878788,2.88181818 L91.4909091,2.93939394 L91.4787879,2.84545455 L91.5878788,2.88181818 Z M92.3666667,28.8606061 L89.6424242,28.8606061 C89.5606061,29.1090909 89.4545455,29.3606061 89.3121212,29.7393939 C89.1969697,29.2848485 89.1484848,29.0424242 89.1575758,28.8606061 L85.4939394,28.8606061 L85.4939394,19.0242424 L90.3606061,19.0242424 L90.3606061,14.4787879 L85.4939394,14.4787879 L85.4939394,5.77878788 L92.3666667,5.77878788 L92.3666667,1.33939394 L79.030303,1.33939394 L79.030303,5.45454545 C79.1848485,5.31515152 79.2939394,5.20909091 79.3969697,5.18787879 C79.5424242,5.15757576 79.7151515,5.24545455 79.8727273,5.28484848 C79.8181818,5.41212121 79.7818182,5.63636364 79.7,5.65151515 C79.530303,5.68181818 79.3212121,5.64242424 79.030303,5.6030303 L79.030303,18.2181818 C79.4333333,18.1848485 79.8363636,18.1454545 80.2424242,18.1454545 C80.5454545,18.1454545 80.8818182,18.2363636 80.8848485,18.7242424 C80.2545455,18.7333333 79.630303,18.8121212 79.030303,18.6090909 L79.030303,23.769697 C79.0484848,23.7575758 79.0666667,23.7454545 79.0818182,23.7333333 C79.1484848,23.8 79.2151515,23.8636364 79.2787879,23.930303 C79.2333333,23.9606061 79.1606061,24.0212121 79.1515152,24.0121212 C79.1060606,23.9787879 79.069697,23.9393939 79.030303,23.8969697 L79.030303,33.3 L92.3666667,33.3 L92.3666667,28.8606061 L92.3666667,28.8606061 Z" id="Fill-5"></path>
            <path d="M109.812121,6.49090909 C109.769697,6.47272727 109.757576,6.4030303 109.730303,6.35757576 C109.784848,6.33636364 109.839394,6.31212121 109.890909,6.29090909 C109.915152,6.33636364 109.966667,6.39090909 109.954545,6.43030303 C109.945455,6.46363636 109.845455,6.5030303 109.812121,6.49090909 Z M109.848485,14.1515152 C109.809091,14.1636364 109.757576,14.1333333 109.712121,14.1212121 C109.715152,14.0818182 109.718182,14.0393939 109.721212,14 C109.790909,14.0181818 109.860606,14.0333333 109.933333,14.0515152 C109.906061,14.0878788 109.884848,14.1393939 109.848485,14.1515152 Z M108.206061,19.4333333 C108.572727,19.1242424 108.860606,19.3939394 109.148485,19.4333333 C109.384848,19.4636364 109.730303,19.3575758 109.875758,19.7151515 C109.266667,19.730303 108.693939,19.8454545 108.206061,19.4333333 Z M108.466667,23.4181818 C108.381818,23.2969697 108.29697,23.1787879 108.212121,23.0606061 C108.312121,23.0151515 108.457576,22.9121212 108.5,22.9363636 C108.624242,23.0151515 108.706061,23.1454545 108.806061,23.2545455 C108.712121,23.3 108.615152,23.3454545 108.466667,23.4181818 Z M107.530303,7.46666667 C107.427273,7.40909091 107.293939,7.36969697 107.236364,7.29090909 C107.175758,7.2030303 107.184848,7.07878788 107.163636,6.96969697 C107.193939,6.92424242 107.224242,6.87575758 107.257576,6.83030303 C107.39697,6.90606061 107.612121,6.95757576 107.663636,7.06666667 C107.709091,7.16666667 107.581818,7.33030303 107.530303,7.46666667 Z M107.275758,26.3818182 C107.321212,26.3 107.357576,26.2393939 107.390909,26.1787879 C107.409091,26.2181818 107.448485,26.269697 107.433333,26.3 C107.418182,26.3333333 107.351515,26.3454545 107.275758,26.3818182 Z M107.069697,21.2787879 C107.009091,21.2242424 106.951515,21.169697 106.893939,21.1121212 C106.942424,21.0939394 106.990909,21.0727273 107.036364,21.0515152 C107.072727,21.0848485 107.130303,21.1151515 107.133333,21.1515152 C107.136364,21.1909091 107.090909,21.2363636 107.069697,21.2787879 Z M107.078788,4.06060606 C107.212121,4.14545455 107.315152,4.26969697 107.427273,4.38181818 C107.342424,4.43333333 107.218182,4.54848485 107.172727,4.52727273 C107.027273,4.46060606 106.909091,4.34545455 106.769697,4.23636364 C106.909091,4.15454545 107.048485,4.03939394 107.078788,4.06060606 Z M106.718182,15.4272727 C106.593939,15.5090909 106.460606,15.5757576 106.330303,15.6454545 C106.324242,15.669697 106.318182,15.6909091 106.309091,15.7151515 L106.269697,15.6787879 C106.290909,15.669697 106.309091,15.6575758 106.330303,15.6454545 C106.366667,15.5181818 106.4,15.3878788 106.460606,15.269697 C106.475758,15.2424242 106.642424,15.2757576 106.733333,15.2909091 C106.739394,15.2909091 106.748485,15.4090909 106.718182,15.4272727 Z M105.554545,30.6272727 C105.451515,30.6242424 105.348485,30.6 105.245455,30.5848485 C105.275758,30.5575758 105.306061,30.5030303 105.333333,30.5030303 C105.436364,30.5090909 105.539394,30.530303 105.639394,30.5454545 C105.612121,30.5757576 105.581818,30.630303 105.554545,30.6272727 Z M105.109091,29.0515152 C105.027273,28.9848485 104.948485,28.9212121 104.866667,28.8545455 C104.960606,28.9060606 105.051515,28.9606061 105.145455,29.0151515 C105.160606,29.0333333 105.175758,29.0515152 105.190909,29.069697 C105.281818,29.0878788 105.375758,29.1060606 105.448485,29.1454545 C105.49697,29.1727273 105.490909,29.2787879 105.506061,29.3454545 C105.454545,29.3212121 105.390909,29.3090909 105.354545,29.269697 C105.293939,29.2090909 105.242424,29.1393939 105.190909,29.069697 C105.163636,29.0636364 105.136364,29.0575758 105.109091,29.0515152 Z M104.687879,28.3212121 C104.524242,28.4454545 104.263636,28.5424242 103.909091,28.6121212 C103.551515,28.6848485 103.19697,28.7272727 102.842424,28.7454545 C102.487879,28.7636364 102.00303,28.7727273 101.387879,28.7727273 L101.387879,5.88484848 C102.866667,5.8969697 103.918182,6.07575758 104.545455,6.41818182 C105.175758,6.76060606 105.487879,7.46060606 105.487879,8.51515152 L105.487879,25.7181818 C105.487879,26.2030303 105.466667,26.6090909 105.427273,26.9363636 C105.384848,27.2606061 105.293939,27.5424242 105.151515,27.7787879 C105.009091,28.0151515 104.854545,28.1969697 104.687879,28.3212121 Z M102.381818,29.7757576 L102.348485,29.7030303 L102.409091,29.7454545 L102.381818,29.7757576 Z M103.690909,4.9 C103.784848,4.92424242 103.878788,4.94848485 103.972727,4.97272727 C103.9,5.03636364 103.827273,5.1 103.751515,5.16363636 C103.718182,5.12424242 103.663636,5.08787879 103.654545,5.04242424 C103.642424,5 103.678788,4.94848485 103.690909,4.9 Z M109.415152,16.5121212 L109.427273,16.630303 L109.284848,16.5818182 L109.415152,16.5121212 Z M100.6,3.4 C100.036364,3.67272727 99.8363636,3.18787879 99.5515152,2.93333333 C99.4393939,2.83333333 99.4333333,2.63636364 99.3878788,2.50606061 C99.4545455,2.42727273 99.4848485,2.35151515 99.5333333,2.34545455 C100.281818,2.22424242 100.636364,2.38787879 100.787879,2.97272727 C100.821212,3.1 100.721212,3.33939394 100.6,3.4 Z M100.360606,18.6242424 C100.248485,18.5424242 100.106061,18.4272727 100.1,18.3181818 C100.090909,18.1818182 100.20303,18.0363636 100.263636,17.8939394 C100.354545,17.9484848 100.442424,18.0030303 100.530303,18.0575758 C100.563636,18.1909091 100.633333,18.3272727 100.612121,18.4575758 C100.60303,18.5242424 100.381818,18.6424242 100.360606,18.6242424 Z M99.969697,6.63636364 C99.9393939,6.60606061 99.9090909,6.57272727 99.8757576,6.54242424 C99.8969697,6.5030303 99.9060606,6.44242424 99.9393939,6.43030303 C99.9727273,6.41818182 100.030303,6.45151515 100.075758,6.46363636 C100.042424,6.52121212 100.006061,6.57878788 99.969697,6.63636364 Z M99.7212121,8.17272727 C99.6121212,8.03939394 99.4606061,7.91515152 99.4121212,7.76666667 C99.369697,7.63636364 99.4393939,7.47575758 99.4575758,7.33030303 C99.6181818,7.3969697 99.8333333,7.43030303 99.9181818,7.53939394 C100.006061,7.65757576 99.969697,7.84848485 99.9878788,8.00909091 C99.8969697,8.06363636 99.8090909,8.11818182 99.7212121,8.17272727 Z M99.3757576,27.3484848 C99.0242424,27.4545455 98.9878788,27.2 98.9515152,26.9787879 C98.9363636,26.9848485 98.9242424,26.9939394 98.9121212,26.9969697 C98.8333333,26.9333333 98.7545455,26.8727273 98.6757576,26.8090909 C98.7666667,26.8606061 98.8575758,26.9121212 98.9484848,26.9606061 C98.9484848,26.9666667 98.9484848,26.9727273 98.9515152,26.9787879 C99.1575758,26.8818182 99.3393939,26.4575758 99.5818182,26.9363636 C99.630303,27.0333333 99.4909091,27.3121212 99.3757576,27.3484848 Z M99.0575758,5.65151515 C99.0333333,5.71515152 99.0121212,5.77575758 98.9878788,5.83939394 C98.9515152,5.81212121 98.8939394,5.79090909 98.8818182,5.75757576 C98.869697,5.72424242 98.9030303,5.67878788 98.9181818,5.63636364 C98.9636364,5.64242424 99.0090909,5.64848485 99.0575758,5.65151515 Z M98.7636364,4.10909091 C98.8484848,4.08484848 98.9666667,4.16363636 99.0727273,4.19393939 C98.9878788,4.30909091 98.9030303,4.42424242 98.8181818,4.53939394 C98.7363636,4.46969697 98.6515152,4.4030303 98.5666667,4.33636364 C98.630303,4.25757576 98.6787879,4.13333333 98.7636364,4.10909091 Z M98.0181818,12.830303 C97.9848485,12.7484848 97.9393939,12.6636364 97.9272727,12.5787879 C97.9212121,12.5545455 98.0333333,12.4848485 98.0545455,12.4939394 C98.1363636,12.5363636 98.2,12.6 98.2727273,12.6575758 C98.1878788,12.7151515 98.1030303,12.7727273 98.0181818,12.830303 Z M97.9181818,14.3818182 C97.7121212,14.3636364 97.5090909,14.3030303 97.2878788,14.2515152 C97.3757576,14.0636364 97.4151515,13.9757576 97.4575758,13.8848485 C97.6606061,13.9666667 97.8636364,14.0484848 98.0666667,14.130303 C98.0181818,14.2181818 97.9575758,14.3848485 97.9181818,14.3818182 Z M97.6666667,21.6333333 C97.5939394,21.6060606 97.5727273,21.4757576 97.5272727,21.3909091 C97.630303,21.3575758 97.7515152,21.2787879 97.8242424,21.3030303 C97.8969697,21.330303 97.9181818,21.4636364 97.9606061,21.5515152 C97.8606061,21.5818182 97.7393939,21.6606061 97.6666667,21.6333333 Z M97.730303,22.4212121 L97.7121212,22.3272727 L97.830303,22.3636364 L97.730303,22.4212121 Z M95.8606061,25.8151515 C96.7272727,25.1818182 96.7272727,25.1818182 97.330303,25.9363636 C96.7606061,25.8878788 96.3090909,25.8515152 95.8606061,25.8151515 Z M96.1545455,32.3545455 C96.0848485,32.2969697 96.0151515,32.2393939 95.9484848,32.1787879 C96.0363636,32.130303 96.1212121,32.0757576 96.2151515,32.0393939 C96.2333333,32.0333333 96.330303,32.1242424 96.3242424,32.1363636 C96.2787879,32.2151515 96.2121212,32.2818182 96.1545455,32.3545455 Z M96.6212121,23.4242424 C96.569697,23.4030303 96.5151515,23.3848485 96.4636364,23.3636364 C96.4606061,23.3181818 96.4363636,23.2545455 96.4606061,23.2272727 C96.4909091,23.1969697 96.5636364,23.2 96.6181818,23.1848485 C96.6181818,23.2666667 96.6212121,23.3454545 96.6212121,23.4242424 Z M95.3484848,15.6424242 C95.6787879,15.7909091 95.9727273,15.9272727 96.2848485,16.0666667 C96.4727273,15.6393939 96.6181818,15.3090909 96.8606061,14.7606061 C97.2787879,15.3727273 97.5575758,15.7818182 97.8878788,16.269697 C97.3393939,16.5333333 96.9212121,16.7969697 96.4545455,16.9333333 C96.2030303,17.0060606 95.7969697,16.9363636 95.5909091,16.7878788 C95.1909091,16.5 94.9272727,16.1060606 95.3484848,15.6424242 Z M96.5484848,6.46363636 C96.6818182,6.48787879 96.8939394,6.69090909 96.869697,6.74545455 C96.7969697,6.90909091 96.6272727,7.03939394 96.4333333,7.25151515 C96.2545455,7.03030303 96.0939394,6.91818182 96.0787879,6.79393939 C96.0484848,6.52121212 96.2878788,6.41515152 96.5484848,6.46363636 Z M97.8030303,5.5030303 C97.8333333,5.59393939 97.9242424,5.71515152 97.8878788,5.76969697 C97.8090909,5.88181818 97.6666667,5.96060606 97.5484848,6.05151515 C97.5151515,5.95757576 97.4787879,5.86363636 97.4242424,5.71515152 C97.5393939,5.64848485 97.669697,5.57575758 97.8030303,5.5030303 Z M99.2333333,11.9151515 C99.2575758,11.9484848 99.2818182,11.9848485 99.3030303,12.0212121 C99.2636364,12.0363636 99.2151515,12.0757576 99.1878788,12.0666667 C99.1545455,12.0545455 99.1393939,12.0030303 99.1181818,11.9666667 C99.1545455,11.9484848 99.1939394,11.930303 99.2333333,11.9151515 Z M111.127273,19.930303 C111.493939,19.7939394 111.730303,19.7242424 111.951515,19.6909091 L111.951515,11.6909091 C111.951515,9.78484848 111.8,8.21818182 111.49697,6.98787879 C111.269697,6.04848485 110.851515,5.24545455 110.339394,4.50909091 C109.839394,4.63636364 109.306061,4.67575758 108.781818,4.72424242 C108.715152,4.73030303 108.581818,4.58484848 108.566667,4.5 C108.551515,4.40909091 108.615152,4.23939394 108.690909,4.21515152 C109.075758,4.1 109.49697,3.99090909 109.909091,3.88181818 C109.890909,3.86363636 109.881818,3.83636364 109.863636,3.81818182 C109.078788,2.93636364 107.993939,2.3030303 106.615152,1.91818182 C105.236364,1.53333333 103.481818,1.33939394 101.351515,1.33939394 L94.6757576,1.33939394 L94.6757576,7.35454545 C94.7878788,7.31515152 94.8909091,7.25757576 95.0242424,7.24545455 C95.030303,7.23030303 95.0333333,7.21212121 95.0424242,7.2 C95.1484848,6.84242424 95.2545455,6.48787879 95.3606061,6.13030303 C95.3606061,6.13030303 95.369697,6.13636364 95.3787879,6.14545455 C95.3878788,6.15151515 95.3969697,6.15757576 95.3969697,6.15757576 C95.2909091,6.51818182 95.1848485,6.87575758 95.0787879,7.23333333 C95.0606061,7.23636364 95.0424242,7.24242424 95.0242424,7.24545455 C94.9151515,7.4969697 94.830303,7.76363636 94.6757576,7.98787879 L94.6757576,33.3 L100.4,33.3 L100.40303,33.2878788 C100.460606,33.2878788 100.521212,33.2939394 100.581818,33.3 L101.278788,33.3 C102.593939,33.3 103.757576,33.2242424 104.769697,33.069697 C105.781818,32.9151515 106.663636,32.6969697 107.415152,32.4121212 C108.166667,32.130303 108.809091,31.7454545 109.342424,31.2575758 C109.872727,30.7727273 110.309091,30.2484848 110.645455,29.6878788 C110.984848,29.1242424 111.248485,28.4393939 111.445455,27.6272727 C111.624242,26.8818182 111.739394,26.1181818 111.812121,25.3424242 C111.736364,25.3909091 111.660606,25.4424242 111.575758,25.4818182 C111.560606,25.4878788 111.457576,25.3939394 111.463636,25.3787879 C111.512121,25.2969697 111.581818,25.2212121 111.645455,25.1454545 C111.70303,25.1969697 111.760606,25.2484848 111.818182,25.3 C111.824242,25.2454545 111.839394,25.1969697 111.845455,25.1424242 C111.915152,24.2969697 111.951515,23.3030303 111.951515,22.1666667 L111.951515,20.2606061 C111.687879,20.1545455 111.433333,20.0515152 111.127273,19.930303 L111.127273,19.930303 Z" id="Fill-6"></path>
            <path d="M128.681818,24.3424242 L128.681818,10.3333333 C128.681818,5.96666667 126.984848,3.78181818 123.587879,3.78181818 C120.190909,3.78181818 118.490909,5.96666667 118.490909,10.3333333 L118.490909,24.3424242 C118.490909,28.7242424 120.190909,30.9121212 123.587879,30.9121212 C126.984848,30.9121212 128.681818,28.7242424 128.681818,24.3424242 Z M115.790909,23.7393939 L115.790909,10.9363636 C115.790909,9.86060606 115.872727,8.87272727 116.033333,7.97272727 C116.190909,7.07272727 116.460606,6.22424242 116.839394,5.42424242 C117.218182,4.62424242 117.69697,3.95151515 118.278788,3.4 C118.857576,2.84848485 119.59697,2.41515152 120.49697,2.09393939 C121.39697,1.77575758 122.427273,1.61515152 123.587879,1.61515152 C124.748485,1.61515152 125.775758,1.77575758 126.675758,2.09393939 C127.575758,2.41515152 128.315152,2.84848485 128.89697,3.4 C129.475758,3.95151515 129.954545,4.62424242 130.333333,5.42424242 C130.712121,6.22424242 130.981818,7.07272727 131.142424,7.97272727 C131.30303,8.87272727 131.381818,9.86060606 131.381818,10.9363636 L131.381818,23.7393939 C131.381818,28 130.169697,30.8060606 127.742424,32.1545455 C128.190909,32.5575758 128.563636,32.8787879 128.860606,33.1151515 C129.157576,33.3515152 129.548485,33.5969697 130.042424,33.8515152 C130.533333,34.1060606 131.021212,34.269697 131.506061,34.3393939 L131.506061,36.3636364 C130.524242,36.2212121 129.59697,35.8484848 128.727273,35.2454545 C127.857576,34.6424242 126.960606,33.8242424 126.036364,32.7939394 C125.254545,32.9848485 124.439394,33.0787879 123.587879,33.0787879 C118.390909,33.0787879 115.790909,29.9666667 115.790909,23.7393939 L115.790909,23.7393939 Z" id="Fill-8"></path>
            <path d="M135.660606,25.0878788 L135.660606,2.04242424 L138.360606,2.04242424 L138.360606,25.7090909 C138.360606,27.4636364 138.757576,28.7666667 139.548485,29.6242424 C140.342424,30.4848485 141.678788,30.9121212 143.560606,30.9121212 C145.336364,30.9121212 146.60303,30.4818182 147.360606,29.6151515 C148.118182,28.7515152 148.49697,27.4515152 148.49697,25.7090909 L148.49697,2.04242424 L151.178788,2.04242424 L151.178788,25.0878788 C151.178788,30.4151515 148.639394,33.0787879 143.560606,33.0787879 C142.342424,33.0787879 141.269697,32.9363636 140.339394,32.6515152 C139.409091,32.369697 138.651515,31.9878788 138.066667,31.5060606 C137.481818,31.0272727 137.00303,30.4424242 136.636364,29.7484848 C136.269697,29.0575758 136.015152,28.3363636 135.872727,27.5848485 C135.730303,26.830303 135.660606,26 135.660606,25.0878788" id="Fill-10"></path>
            <polyline id="Fill-11" points="156.221212 32.6 156.221212 2.04242424 166.875758 2.04242424 166.875758 4.20909091 158.921212 4.20909091 158.921212 15.7848485 164.60303 15.7848485 164.60303 17.8272727 158.921212 17.8272727 158.921212 30.4333333 166.875758 30.4333333 166.875758 32.6 156.221212 32.6"></polyline>
            <polyline id="Fill-12" points="170.336364 32.6 170.336364 2.04242424 180.990909 2.04242424 180.990909 4.20909091 173.036364 4.20909091 173.036364 15.7848485 178.718182 15.7848485 178.718182 17.8272727 173.036364 17.8272727 173.036364 30.4333333 180.990909 30.4333333 180.990909 32.6 170.336364 32.6"></polyline>
            <path d="M187.151515,15.5181818 L192.584848,15.5181818 C193.354545,15.5181818 194.006061,15.3636364 194.539394,15.0575758 C195.069697,14.7484848 195.469697,14.3121212 195.736364,13.7424242 C196.00303,13.1757576 196.190909,12.5818182 196.29697,11.9666667 C196.40303,11.3515152 196.457576,10.6484848 196.457576,9.85454545 C196.457576,9.2030303 196.424242,8.61818182 196.357576,8.0969697 C196.293939,7.57575758 196.175758,7.06666667 196.00303,6.56969697 C195.830303,6.07272727 195.60303,5.65454545 195.321212,5.31818182 C195.036364,4.98181818 194.663636,4.71212121 194.2,4.50909091 C193.739394,4.30909091 193.2,4.20909091 192.584848,4.20909091 L187.151515,4.20909091 L187.151515,15.5181818 Z M184.454545,32.6 L184.454545,2.04242424 L192.60303,2.04242424 C193.633333,2.04242424 194.539394,2.18484848 195.321212,2.46666667 C196.1,2.75151515 196.730303,3.12727273 197.212121,3.5969697 C197.690909,4.06363636 198.078788,4.64242424 198.372727,5.33636364 C198.669697,6.02727273 198.872727,6.74545455 198.984848,7.48484848 C199.1,8.22424242 199.154545,9.04242424 199.154545,9.94242424 C199.154545,13.8363636 197.733333,16.3060606 194.893939,17.3484848 L199.615152,32.6 L196.739394,32.6 L192.284848,17.6848485 L187.151515,17.6848485 L187.151515,32.6 L184.454545,32.6 L184.454545,32.6 Z" id="Fill-13"></path>
        </g>
    </g>
</svg>
