<?xml version="1.0" encoding="utf-8"?>
<!-- Generator: Adobe Illustrator 25.2.0, SVG Export Plug-In . SVG Version: 6.00 Build 0)  -->
<svg version="1.1" id="Layer_1" xmlns="http://www.w3.org/2000/svg" xmlns:xlink="http://www.w3.org/1999/xlink" x="0px" y="0px"
	 viewBox="0 0 2000 404" style="enable-background:new 0 0 2000 404;" xml:space="preserve">
<style type="text/css">
	.st0{fill:#F81857;}
</style>
<g>
	<g>
		<path class="st0" d="M265.35,45.66l-39.81,294.59H197.3l-45.37-146.45l-44.9,146.45H78.79L38.98,45.66h51.39l17.59,146.88
			l29.63-100.16h29.16l29.63,100.16l17.59-146.88H265.35z"/>
		<path class="st0" d="M341.74,340.25h-50.92V45.66h50.92V340.25z"/>
		<path class="st0" d="M451.44,343.61c-21.61,0-39.51-5.75-53.7-17.25c-15.44-14.03-23.15-32.41-23.15-55.13V114.67
			c0-22.73,7.71-41.1,23.15-55.13c14.19-11.5,32.09-17.25,53.7-17.25c22.22,0,40.12,5.75,53.7,17.25
			c15.43,13.47,23.15,31.85,23.15,55.13v26.09h-50.92v-26.09c0-10.38-2.16-17.39-6.48-21.04c-4.01-3.37-10.5-5.05-19.44-5.05
			c-8.64,0-14.97,1.68-18.98,5.05c-4.63,3.93-6.94,10.94-6.94,21.04v156.55c0,10.1,2.31,17.12,6.94,21.04
			c4.01,3.37,10.34,5.05,18.98,5.05c8.95,0,15.43-1.68,19.44-5.05c4.32-3.64,6.48-10.66,6.48-21.04v-37.88h50.92v37.88
			c0,23.29-7.72,41.66-23.15,55.13C491.56,337.87,473.67,343.61,451.44,343.61z"/>
		<path class="st0" d="M721.79,340.25h-54.63l-39.35-94.27l-17.59,36.61v57.66h-50.92V45.66h50.92v119.52l56.48-119.52h55.09
			l-65.27,139.72L721.79,340.25z"/>
		<path class="st0" d="M797.25,91.95v74.07h57.4v46.29h-57.4v81.64h83.33v46.29H746.33V45.66h134.25v46.29H797.25z"/>
		<path class="st0" d="M988.89,340.25h-76.85V45.66h76.85c21.91,0,39.81,5.89,53.7,17.68c15.43,12.91,23.15,31.14,23.15,54.71v151.5
			c0,11.51-1.85,21.75-5.56,30.72c-4.33,9.54-10.34,17.4-18.05,23.57C1028.86,334.78,1011.12,340.25,988.89,340.25z M962.97,293.95
			h25.92c9.26,0,15.74-1.54,19.44-4.63c4.32-3.37,6.48-9.96,6.48-19.78v-151.5c0-9.82-2.31-16.83-6.94-21.04
			c-4.01-3.37-10.34-5.05-18.98-5.05h-25.92V293.95z"/>
		<path d="M1256,349.51v46.29h-6.48c-21.61,0-39.51-5.75-53.7-17.25c-10.5-8.98-17.44-20.62-20.83-34.93h-2.78
			c-10.5,0-20.37-1.55-29.63-4.63c-9.26-3.08-17.29-7.43-24.07-13.05c-15.44-12.9-23.15-31.14-23.15-54.71V114.67
			c0-23.84,7.71-42.22,23.15-55.13c13.58-11.5,31.48-17.25,53.7-17.25s40.12,5.75,53.7,17.25c15.43,12.91,23.15,31.29,23.15,55.13
			v156.55c0,23.57-7.72,41.81-23.15,54.71l-1.85,1.68c0.61,8.14,2.78,13.74,6.48,16.83c4.01,3.37,10.34,5.05,18.98,5.05H1256z
			 M1172.21,297.32c8.95,0,15.28-1.68,18.98-5.05c4.63-3.93,6.94-10.94,6.94-21.04V114.67c0-10.38-2.31-17.39-6.94-21.04
			c-3.7-3.37-10.03-5.05-18.98-5.05c-8.64,0-14.97,1.68-18.98,5.05c-4.63,3.93-6.94,10.94-6.94,21.04v156.55
			c0,9.82,2.31,16.83,6.94,21.04C1157.24,295.64,1163.57,297.32,1172.21,297.32z"/>
		<path d="M1359.69,343.61c-22.22,0-40.12-5.75-53.7-17.25c-15.44-13.47-23.15-31.84-23.15-55.13V45.66h50.92v225.57
			c0,10.38,2.16,17.4,6.48,21.04c4.01,3.37,10.49,5.05,19.44,5.05c8.64,0,14.97-1.68,18.98-5.05c4.63-3.93,6.94-10.94,6.94-21.04
			V45.66h50.92v225.57c0,22.73-7.72,41.1-23.15,55.13C1399.2,337.87,1381.29,343.61,1359.69,343.61z"/>
		<path d="M1522.18,91.95v74.07h57.4v46.29h-57.4v81.64h83.33v46.29h-134.25V45.66h134.25v46.29H1522.18z"/>
		<path d="M1687.9,91.95v74.07h57.4v46.29h-57.4v81.64h83.33v46.29h-134.25V45.66h134.25v46.29H1687.9z"/>
		<path d="M1955.01,340.25h-51.85l-26.39-118.26h-23.15v118.26h-50.92V45.66h76.85c21.91,0,39.81,5.89,53.7,17.68
			c15.43,12.91,23.15,31.14,23.15,54.71v31.56c0,23.85-7.72,42.23-23.15,55.13c-2.16,1.97-4.63,3.79-7.41,5.47L1955.01,340.25z
			 M1905.47,118.04c0-9.82-2.31-16.83-6.94-21.04c-4.01-3.37-10.34-5.05-18.98-5.05h-25.92v83.75h25.92
			c8.64,0,14.97-1.68,18.98-5.05c4.63-3.93,6.94-10.94,6.94-21.04V118.04z"/>
	</g>
</g>
</svg>
