<?xml version="1.0" encoding="UTF-8"?>
<svg width="1919px" height="354px" viewBox="0 0 1919 354" version="1.1" xmlns="http://www.w3.org/2000/svg" xmlns:xlink="http://www.w3.org/1999/xlink" jetway-hooks="{}">
    <title>logo_pink_and_black</title>
    <g jetway-hook-id="5F9DA70F-18EA-4CFA-83B1-A87E01E10CB4" id="Page-1" stroke="none" stroke-width="1" fill="none" fill-rule="evenodd">
        <g jetway-hook-id="94796C45-11A9-4FB4-ABC0-2EEEE2198FB1" id="logo_pink_and_black" fill-rule="nonzero">
            <polygon jetway-hook-id="4D7F0E6C-150C-4144-8FC0-BFC77F7B619C" id="Path" fill="#F81857" points="227.35 3.66 187.54 298.25 159.3 298.25 113.93 151.8 69.03 298.25 40.79 298.25 0.98 3.66 52.37 3.66 69.96 150.54 99.59 50.38 128.75 50.38 158.38 150.54 175.97 3.66"></polygon>
            <polygon jetway-hook-id="C9DFA056-CBDC-4C17-91A5-2BBA9AE3C753" id="Path" fill="#F81857" points="303.74 298.25 252.82 298.25 252.82 3.66 303.74 3.66"></polygon>
            <path d="M413.44,301.61 C391.83,301.61 373.93,295.86 359.74,284.36 C344.3,270.33 336.59,251.95 336.59,229.23 L336.59,72.67 C336.59,49.94 344.3,31.57 359.74,17.54 C373.93,6.04 391.83,0.29 413.44,0.29 C435.66,0.29 453.56,6.04 467.14,17.54 C482.57,31.01 490.29,49.39 490.29,72.67 L490.29,98.76 L439.37,98.76 L439.37,72.67 C439.37,62.29 437.21,55.28 432.89,51.63 C428.88,48.26 422.39,46.58 413.45,46.58 C404.81,46.58 398.48,48.26 394.47,51.63 C389.84,55.56 387.53,62.57 387.53,72.67 L387.53,229.22 C387.53,239.32 389.84,246.34 394.47,250.26 C398.48,253.63 404.81,255.31 413.45,255.31 C422.4,255.31 428.88,253.63 432.89,250.26 C437.21,246.62 439.37,239.6 439.37,229.22 L439.37,191.34 L490.29,191.34 L490.29,229.22 C490.29,252.51 482.57,270.88 467.14,284.35 C453.56,295.87 435.67,301.61 413.44,301.61 Z" jetway-hook-id="6503AB96-F0F4-4824-A651-C7717BF3DFAE" id="Path" fill="#F81857"></path>
            <polygon jetway-hook-id="01F89A2F-946F-4783-A42B-31EA63BBF28E" id="Path" fill="#F81857" points="683.79 298.25 629.16 298.25 589.81 203.98 572.22 240.59 572.22 298.25 521.3 298.25 521.3 3.66 572.22 3.66 572.22 123.18 628.7 3.66 683.79 3.66 618.52 143.38"></polygon>
            <polygon jetway-hook-id="8BD580A5-2439-4DA4-83F6-160B3C22EB9A" id="Path" fill="#F81857" points="759.25 49.95 759.25 124.02 816.65 124.02 816.65 170.31 759.25 170.31 759.25 251.95 842.58 251.95 842.58 298.24 708.33 298.24 708.33 3.66 842.58 3.66 842.58 49.95"></polygon>
            <path d="M950.89,298.25 L874.04,298.25 L874.04,3.66 L950.89,3.66 C972.8,3.66 990.7,9.55 1004.59,21.34 C1020.02,34.25 1027.74,52.48 1027.74,76.05 L1027.74,227.55 C1027.74,239.06 1025.89,249.3 1022.18,258.27 C1017.85,267.81 1011.84,275.67 1004.13,281.84 C990.86,292.78 973.12,298.25 950.89,298.25 Z M924.97,251.95 L950.89,251.95 C960.15,251.95 966.63,250.41 970.33,247.32 C974.65,243.95 976.81,237.36 976.81,227.54 L976.81,76.04 C976.81,66.22 974.5,59.21 969.87,55 C965.86,51.63 959.53,49.95 950.89,49.95 L924.97,49.95 L924.97,251.95 Z" jetway-hook-id="69BFB64D-4A78-41E6-A14A-AB80491B0B99" id="Shape" fill="#F81857"></path>
            <path d="M1218,307.51 L1218,353.8 L1211.52,353.8 C1189.91,353.8 1172.01,348.05 1157.82,336.55 C1147.32,327.57 1140.38,315.93 1136.99,301.62 L1134.21,301.62 C1123.71,301.62 1113.84,300.07 1104.58,296.99 C1095.32,293.91 1087.29,289.56 1080.51,283.94 C1065.07,271.04 1057.36,252.8 1057.36,229.23 L1057.36,72.67 C1057.36,48.83 1065.07,30.45 1080.51,17.54 C1094.09,6.04 1111.99,0.29 1134.21,0.29 C1156.43,0.29 1174.33,6.04 1187.91,17.54 C1203.34,30.45 1211.06,48.83 1211.06,72.67 L1211.06,229.22 C1211.06,252.79 1203.34,271.03 1187.91,283.93 L1186.06,285.61 C1186.67,293.75 1188.84,299.35 1192.54,302.44 C1196.55,305.81 1202.88,307.49 1211.52,307.49 L1218,307.49 L1218,307.51 Z M1134.21,255.32 C1143.16,255.32 1149.49,253.64 1153.19,250.27 C1157.82,246.34 1160.13,239.33 1160.13,229.23 L1160.13,72.67 C1160.13,62.29 1157.82,55.28 1153.19,51.63 C1149.49,48.26 1143.16,46.58 1134.21,46.58 C1125.57,46.58 1119.24,48.26 1115.23,51.63 C1110.6,55.56 1108.29,62.57 1108.29,72.67 L1108.29,229.22 C1108.29,239.04 1110.6,246.05 1115.23,250.26 C1119.24,253.64 1125.57,255.32 1134.21,255.32 Z" jetway-hook-id="4A4D4193-8FC8-4603-9A93-B741BAF37532" id="Shape" fill="#FFFFFF"></path>
            <path d="M1321.69,301.61 C1299.47,301.61 1281.57,295.86 1267.99,284.36 C1252.55,270.89 1244.84,252.52 1244.84,229.23 L1244.84,3.66 L1295.76,3.66 L1295.76,229.23 C1295.76,239.61 1297.92,246.63 1302.24,250.27 C1306.25,253.64 1312.73,255.32 1321.68,255.32 C1330.32,255.32 1336.65,253.64 1340.66,250.27 C1345.29,246.34 1347.6,239.33 1347.6,229.23 L1347.6,3.66 L1398.52,3.66 L1398.52,229.23 C1398.52,251.96 1390.8,270.33 1375.37,284.36 C1361.2,295.87 1343.29,301.61 1321.69,301.61 Z" jetway-hook-id="C7AD41A0-CF4E-416F-ADD7-4AE785597E81" id="Path" fill="#FFFFFF"></path>
            <polygon jetway-hook-id="7F3D2817-1015-4C4A-A69D-4CE858D3587F" id="Path" fill="#FFFFFF" points="1484.18 49.95 1484.18 124.02 1541.58 124.02 1541.58 170.31 1484.18 170.31 1484.18 251.95 1567.51 251.95 1567.51 298.24 1433.26 298.24 1433.26 3.66 1567.51 3.66 1567.51 49.95"></polygon>
            <polygon jetway-hook-id="E0DE0061-0061-465F-87F5-B073E9934B8F" id="Path" fill="#FFFFFF" points="1649.9 49.95 1649.9 124.02 1707.3 124.02 1707.3 170.31 1649.9 170.31 1649.9 251.95 1733.23 251.95 1733.23 298.24 1598.98 298.24 1598.98 3.66 1733.23 3.66 1733.23 49.95"></polygon>
            <path d="M1917.01,298.25 L1865.16,298.25 L1838.77,179.99 L1815.62,179.99 L1815.62,298.25 L1764.7,298.25 L1764.7,3.66 L1841.55,3.66 C1863.46,3.66 1881.36,9.55 1895.25,21.34 C1910.68,34.25 1918.4,52.48 1918.4,76.05 L1918.4,107.61 C1918.4,131.46 1910.68,149.84 1895.25,162.74 C1893.09,164.71 1890.62,166.53 1887.84,168.21 L1917.01,298.25 Z M1867.47,76.04 C1867.47,66.22 1865.16,59.21 1860.53,55 C1856.52,51.63 1850.19,49.95 1841.55,49.95 L1815.63,49.95 L1815.63,133.7 L1841.55,133.7 C1850.19,133.7 1856.52,132.02 1860.53,128.65 C1865.16,124.72 1867.47,117.71 1867.47,107.61 L1867.47,76.04 Z" jetway-hook-id="86057210-B906-461E-B430-9FD27D79541A" id="Shape" fill="#FFFFFF"></path>
        </g>
    </g>
</svg>