<?xml version="1.0" encoding="UTF-8"?>
<svg width="209px" height="51px" viewBox="0 0 209 51" version="1.1" xmlns="http://www.w3.org/2000/svg" xmlns:xlink="http://www.w3.org/1999/xlink">
    <!-- Generator: Sketch 49.1 (51147) - http://www.bohemiancoding.com/sketch -->
    <title>starz</title>
    <desc>Created with Sketch.</desc>
    <defs></defs>
    <g id="Page-1" stroke="none" stroke-width="1" fill="none" fill-rule="evenodd">
        <g id="starz" fill="#262520">
            <path d="M206.609,47.925 C206.838,47.925 206.987,47.776 206.987,47.528 C206.987,47.286 206.838,47.149 206.609,47.149 L206.237,47.149 L206.237,47.925 L206.609,47.925 Z M205.797,46.815 L206.696,46.815 C207.136,46.815 207.434,47.094 207.434,47.528 C207.434,47.887 207.198,48.098 207.006,48.148 L207.006,48.16 C207.006,48.16 207.031,48.185 207.086,48.29 L207.533,49.152 L207.049,49.152 L206.615,48.247 L206.237,48.247 L206.237,49.152 L205.797,49.152 L205.797,46.815 Z M206.553,49.834 C207.551,49.834 208.32,49.028 208.32,47.993 C208.32,46.957 207.551,46.151 206.553,46.151 C205.567,46.151 204.805,46.957 204.805,47.993 C204.805,49.028 205.567,49.834 206.553,49.834 Z M206.553,45.73 C207.787,45.73 208.773,46.734 208.773,47.993 C208.773,49.251 207.787,50.256 206.553,50.256 C205.332,50.256 204.352,49.251 204.352,47.993 C204.352,46.734 205.332,45.73 206.553,45.73 Z" id="Fill-1"></path>
            <path d="M87.657,33.679 L93.67,21.765 L99.682,33.679 L87.657,33.679 Z M79.331,50.174 L83.149,42.59 L104.181,42.59 L108.009,50.174 L118.318,50.174 L93.67,1.345 L69.157,50.174 L79.331,50.174 Z" id="Fill-2"></path>
            <polyline id="Fill-3" points="77.849 1.568 39.168 1.568 39.168 10.482 53.571 10.482 53.571 50.174 63.448 50.174 63.448 10.482 77.849 10.482 77.849 1.568"></polyline>
            <path d="M137.676,22.93 L130.486,22.93 L130.486,10.482 L137.676,10.482 C142.978,10.482 145.898,12.623 145.898,16.682 C145.898,20.708 142.824,22.93 137.676,22.93 Z M155.844,16.43 C155.844,12.152 154.296,8.478 151.365,5.802 C148.331,3.032 144.025,1.568 138.915,1.568 L120.609,1.568 L120.609,50.174 L130.486,50.174 L130.486,32.451 L137.525,32.451 L147.735,50.174 L159.063,50.174 L147.513,30.064 C154.781,26.66 155.844,20.031 155.844,16.43 Z" id="Fill-4"></path>
            <polyline id="Fill-5" points="203.487 1.568 163.326 1.568 163.326 10.48 186.291 10.48 161.351 50.174 202.975 50.174 202.975 41.26 178.547 41.26 203.487 1.568"></polyline>
            <path d="M10.948,14.538 C10.948,11.479 13.778,9.528 17.991,9.528 C24.426,9.528 30.19,13.973 31.743,15.292 L35.871,6.921 C30.745,2.818 24.869,0.741 18.126,0.741 C8.167,0.741 1.21,6.708 1.21,15.214 C1.21,24.514 7.206,27.712 17.563,30.212 C26.224,32.211 27.749,33.933 27.749,36.798 C27.749,40.191 24.718,42.213 20.026,42.213 C14.233,42.213 9.497,40 4.054,34.93 L0,43.613 C5.645,48.459 12.525,51 19.824,51 C30.554,51 37.487,45.22 37.487,35.984 C37.487,28.38 32.927,24.113 21.748,21.394 C13.777,19.504 10.948,18.211 10.948,14.538 Z" id="Fill-6"></path>
        </g>
    </g>
</svg>