<?xml version="1.0" encoding="UTF-8"?>
<svg width="408px" height="355px" viewBox="0 0 408 355" version="1.1" xmlns="http://www.w3.org/2000/svg" xmlns:xlink="http://www.w3.org/1999/xlink" jetway-hooks="{}">
    <title>Group 5</title>
    <defs>
        <polygon id="path-1" points="0.7404 0.4905 161.377 0.4905 161.377 354 0.7404 354"></polygon>
    </defs>
    <g jetway-hook-id="4BFAAB53-5B97-4C06-A645-D43CBAE08D23" id="Page-1" stroke="none" stroke-width="1" fill="none" fill-rule="evenodd">
        <g jetway-hook-id="3FFC6BED-5E83-486C-BBAC-0366D125CCAA" id="Group-5">
            <polygon jetway-hook-id="213C552C-9B6E-45C6-9947-B2AA3F25EC55" id="Fill-1" fill="#F81857" points="174.987 4.3668 157.396 151.2418 127.769 51.0808 98.604 51.0808 68.977 151.2418 51.385 4.3668 0 4.3668 39.812 298.9588 68.051 298.9588 112.955 152.5038 158.322 298.9588 186.56 298.9588 226.372 4.3668"></polygon>
            <g jetway-hook-id="3F636DEB-2731-4687-9BAB-9DFD83EBAB39" id="Group-4" transform="translate(246.000000, 0.510000)">
                <mask id="mask-2" fill="white">
                    <use xlink:href="#path-1"></use>
                </mask>
                <g jetway-hook-id="BB9A3EC7-980B-44DF-BFAB-30422F4A4305" id="Clip-3"></g>
                <path d="M77.5874,255.5225 C86.5344,255.5225 92.8634,253.8385 96.5674,250.4715 C101.1964,246.5455 103.5114,239.5305 103.5114,229.4295 L103.5114,72.8755 C103.5114,62.4995 101.1964,55.4825 96.5674,51.8335 C92.8634,48.4655 86.5344,46.7835 77.5874,46.7835 C68.9434,46.7835 62.6144,48.4655 58.6074,51.8335 C53.9784,55.7655 51.6634,62.7755 51.6634,72.8755 L51.6634,229.4295 C51.6634,239.2535 53.9784,246.2635 58.6074,250.4715 C62.6144,253.8385 68.9434,255.5225 77.5874,255.5225 L77.5874,255.5225 Z M161.3774,307.7075 L161.3774,354.0005 L154.8964,354.0005 C133.2904,354.0005 115.3884,348.2465 101.1964,336.7455 C90.7014,327.7625 83.7574,316.1245 80.3644,301.8155 L77.5874,301.8155 C67.0914,301.8155 57.2184,300.2695 47.9604,297.1855 C38.7014,294.1015 30.6724,289.7545 23.8874,284.1395 C8.4514,271.2385 0.7404,252.9975 0.7404,229.4295 L0.7404,72.8755 C0.7404,49.0325 8.4514,30.6525 23.8874,17.7445 C37.4644,6.2445 55.3664,0.4905 77.5874,0.4905 C99.8084,0.4905 117.7034,6.2445 131.2874,17.7445 C146.7154,30.6525 154.4334,49.0325 154.4334,72.8755 L154.4334,229.4295 C154.4334,252.9975 146.7154,271.2385 131.2874,284.1395 L129.4354,285.8235 C130.0504,293.9635 132.2124,299.5665 135.9164,302.6565 C139.9234,306.0235 146.2534,307.7075 154.8964,307.7075 L161.3774,307.7075 Z" jetway-hook-id="783147AB-8F1E-4004-97D4-C91F72CD133E" id="Fill-2" fill="#000000" mask="url(#mask-2)"></path>
            </g>
        </g>
    </g>
</svg>